<?xml version="1.0" encoding="UTF-8" standalone="no"?>
<!-- Created with Inkscape (http://www.inkscape.org/) -->

<svg
   xmlns:dc="http://purl.org/dc/elements/1.1/"
   xmlns:cc="http://creativecommons.org/ns#"
   xmlns:rdf="http://www.w3.org/1999/02/22-rdf-syntax-ns#"
   xmlns:svg="http://www.w3.org/2000/svg"
   xmlns="http://www.w3.org/2000/svg"
   xmlns:sodipodi="http://sodipodi.sourceforge.net/DTD/sodipodi-0.dtd"
   xmlns:inkscape="http://www.inkscape.org/namespaces/inkscape"
   id="svg2"
   version="1.1"
   inkscape:version="0.48.3.1 r9886"
   width="1269"
   height="1540"
   sodipodi:docname="vorlageMSP.svg">
  <metadata
     id="metadata8">
    <rdf:RDF>
      <cc:Work
         rdf:about="">
        <dc:format>image/svg+xml</dc:format>
        <dc:type
           rdf:resource="http://purl.org/dc/dcmitype/StillImage" />
        <dc:title />
      </cc:Work>
    </rdf:RDF>
  </metadata>
  <defs
     id="defs6" />
  <sodipodi:namedview
     pagecolor="#ffffff"
     bordercolor="#666666"
     borderopacity="1"
     objecttolerance="10"
     gridtolerance="10"
     guidetolerance="10"
     inkscape:pageopacity="0"
     inkscape:pageshadow="2"
     inkscape:window-width="1280"
     inkscape:window-height="962"
     id="namedview4"
     showgrid="false"
     inkscape:zoom="0.36576684"
     inkscape:cx="484.57099"
     inkscape:cy="758.49268"
     inkscape:window-x="-8"
     inkscape:window-y="-8"
     inkscape:window-maximized="1"
     inkscape:current-layer="svg2" />
  <path
     style="fill:#fcdd09;fill-opacity:0;stroke:#000000;stroke-width:1px;stroke-linecap:butt;stroke-linejoin:miter;stroke-opacity:1"
     d="m 380.18396,625.28532 c -22.56452,0.15855 -37.40206,4.03749 -35.75481,15.85355 3.49575,16.43617 17.31646,15.66409 31.36979,14.5043 l 0,64.76342 c -14.44914,-0.19269 -14.76933,7.8565 -19.22664,13.49238 4.09148,5.53278 2.9521,14.9887 16.86547,13.15507 l 255.34329,0.67462 0.33731,-120.08217 z"
     id="path3975"
     inkscape:connector-curvature="0"
     sodipodi:nodetypes="ccccccccc" />
  <path
     style="fill:#fcdd09;fill-opacity:1;stroke:#000000;stroke-width:1px;stroke-linecap:butt;stroke-linejoin:miter;stroke-opacity:1"
     d="m 20.409822,15.35268 611.673948,1.908111 0,1501.683009 C 423.9922,1516.4959 121.08804,1416.7574 19.580272,999.9377 z"
     id="path3973"
     inkscape:connector-curvature="0"
     sodipodi:nodetypes="ccccc" />
  <path
     style="fill:#ffffff;fill-opacity:1;stroke:#000000;stroke-width:1px;stroke-linecap:butt;stroke-linejoin:miter;stroke-opacity:1"
     d="m 632.08377,13.44457 -1.90811,1507.40733 c 247.95669,3.9837 429.00454,-117.8427 538.08714,-305.2977 135.2889,-161.2014 99.2274,-778.14784 80.1407,-1200.20152 z"
     id="path3971"
     inkscape:connector-curvature="0"
     sodipodi:nodetypes="ccccc" />
  <path
     style="fill:#ffffff;fill-opacity:1;stroke:#000000;stroke-width:9;stroke-linecap:butt;stroke-linejoin:miter;stroke-miterlimit:4;stroke-opacity:1;stroke-dasharray:none"
     d="m 508.09847,53.826111 c 16.84853,66.376649 15.96611,120.999809 0.12817,166.874159 -12.43948,36.03074 -33.8398,66.95138 -55.21299,95.87294 -15.71488,21.26489 -29.39476,42.42902 -43.94173,61.41277 -30.13623,39.3277 -58.6078,73.26981 -65.3411,112.61008 l 12.5068,83.37869 64.61849,126.11026 -47.94275,48.98498 c -19.85377,0.15163 -42.94447,-3.75313 -63.41282,-14.44914 -28.92528,-15.11529 -54.63146,-42.11148 -76.05366,-75.81425 -27.48687,-43.2441 -46.30279,-100.74685 -48.22348,-165.82081 -2.58111,-51.0659 16.97218,-97.13781 48.16808,-140.42564 15.80287,-21.92825 37.12765,-43.14208 58.06357,-63.92875 49.757,-49.40229 106.39969,-96.79865 153.70643,-149.2826 24.20892,-26.85833 48.46267,-55.04902 62.93699,-85.522689 z"
     id="path2987"
     inkscape:connector-curvature="0"
     sodipodi:nodetypes="csssccccsscsssc" />
  <path
     style="fill:#fcdd09;fill-opacity:1;stroke:#000000;stroke-width:1px;stroke-linecap:butt;stroke-linejoin:miter;stroke-opacity:1"
     d="m 634.17801,628.65842 -275.58186,-2.36117 c -6.69314,2.52665 -15.85954,2.58004 -14.167,13.49238 -1.39508,17.41238 16.04975,14.26198 30.69517,14.167 l 1.68655,68.13651 c -10.34556,-0.37642 -17.52045,2.94627 -20.23857,11.46852 -0.0899,9.33218 8.61247,12.38419 17.20278,15.51624 l 256.35522,0 2.36116,-121.0941"
     id="path4140"
     inkscape:connector-curvature="0"
     sodipodi:nodetypes="ccccccccc" />
  <path
     style="fill:#000000;stroke:#000000;stroke-width:6;stroke-linecap:butt;stroke-linejoin:miter;stroke-miterlimit:4;stroke-opacity:1;stroke-dasharray:none"
     d="m 38.715762,748.63725 591.882198,-1.47116 -0.98761,713.41721 c -60.88538,-6.2408 -58.12864,-72.2303 -58.36604,-95.6509 -40.15569,-8.8491 -78.92781,-34.0156 -99.99774,-102.7084 -31.23452,-26.3126 -55.33915,-53.7816 -57.54811,-99.4521 1.27608,-40.2113 22.49451,-73.9559 56.99123,-88.0481 C 430.11701,993.08797 392.06195,916.47761 380.77848,820.11092 332.14362,853.87884 272.93006,884.91346 208.43515,881.36043 123.31341,871.42508 70.427662,811.14226 38.715762,748.63725 z"
     id="path2989"
     inkscape:connector-curvature="0"
     sodipodi:nodetypes="cccccccccc" />
  <path
     style="fill:#fcdd09;fill-opacity:1;stroke:#000000;stroke-width:9;stroke-linecap:butt;stroke-linejoin:miter;stroke-miterlimit:4;stroke-opacity:1;stroke-dasharray:none"
     d="m 134.69042,344.9773 c 26.90554,31.72943 67.29417,63.98318 96.43317,93.90582 13.02507,13.37535 24.61171,28.05378 36.2752,44.47626 26.70116,37.59591 47.02599,75.59416 72.16748,100.85529 29.75539,29.89698 62.12576,41.88634 93.18611,39.9643 26.18952,2.72123 41.26213,-9.31173 58.8574,-25.66827 8.7891,8.2292 16.99924,14.74275 24.62072,19.13046 12.59737,7.25234 26.19461,7.60423 40.42124,6.23523 24.35918,-0.83848 73.15152,-7.06218 74.73556,-76.26203 l 0.98986,-380.05833 c -16.57071,21.64333 -35.96108,45.03926 -48.90317,69.34908 -17.1127,32.14369 -25.2234,65.63496 -23.01444,96.32028 4.39387,40.89074 22.14309,76.06888 44.87191,111.14512 -18.75036,-26.04803 -49.59493,-35.23836 -75.34783,-20.87242 -22.28803,12.80341 -31.42001,47.00209 -25.36951,69.30201 26.00167,-19.84305 56.87947,-21.63337 83.77545,-6.82511 12.47216,6.86686 21.87204,22.33562 22.10245,41.0572 0.32765,26.62341 -12.85753,47.90669 -29.07132,58.5965 -23.75821,14.10032 -46.05813,19.73315 -70.09592,-24.1519 6.93708,-2.78218 10.31754,-15.60391 9.42447,-25.58743 -1.07406,-12.00676 -8.14254,-21.58596 -24.97528,-22.15504 -25.74791,-1.19786 -38.82012,36.18251 -12.29294,48.01329 -7.4538,12.99175 -16.31454,20.84911 -27.70772,27.30892 -10.15708,5.75895 -20.97766,10.5531 -35.95769,9.70138 -26.25348,-2.75756 -56.82413,-18.38883 -49.93108,-67.91096 11.81952,-45.86451 64.74485,-57.65989 98.81992,-35.51583 0.35876,-27.81793 -24.83342,-77.51282 -76.28046,-70.34199 -42.99723,8.85554 -47.97469,56.98887 -48.69318,82.39948 -8.8029,-37.90548 -25.41918,-76.50711 -68.40809,-115.58003 -45.05689,-35.83043 -99.21271,-54.4992 -140.63231,-46.83128 z"
     id="path2991"
     inkscape:connector-curvature="0"
     sodipodi:nodetypes="csssccscccsccccssccsccsccccccc" />
  <path
     style="fill:#ffffff;fill-opacity:1;stroke:#000000;stroke-width:6;stroke-linecap:butt;stroke-linejoin:miter;stroke-miterlimit:4;stroke-opacity:0;stroke-dasharray:none"
     d="m 426.19372,812.34098 c 16.53511,33.10712 46.19667,35.94553 71.17715,38.92028 28.681,1.15805 47.04441,-10.95564 69.09269,-16.42285 -16.47978,-17.07521 -31.17171,-35.2013 -62.96573,-36.96226 -31.61617,-3.36577 -55.42951,4.1924 -77.30411,14.46483 z"
     id="path2993"
     inkscape:connector-curvature="0"
     sodipodi:nodetypes="ccccc" />
  <path
     style="fill:#000000;fill-opacity:1;stroke:#000000;stroke-width:3;stroke-linecap:butt;stroke-linejoin:miter;stroke-miterlimit:4;stroke-opacity:1;stroke-dasharray:none"
     d="m 475.78922,798.79194 c -4.37032,19.83612 7.58628,29.23303 21.67106,29.91951 18.06402,0.96117 25.50893,-12.90649 27.37715,-25.29268 -14.94722,-3.9944 -30.43449,-10.83804 -49.04821,-4.62683 z"
     id="path3781"
     inkscape:connector-curvature="0"
     sodipodi:nodetypes="cccc" />
  <path
     style="fill:#ffffff;fill-opacity:1;stroke:#ffffff;stroke-width:2;stroke-linecap:butt;stroke-linejoin:miter;stroke-miterlimit:4;stroke-opacity:1;stroke-dasharray:none"
     d="m 492.32119,797.51056 c -0.82163,5.37719 -0.18814,11.28558 7.36969,11.62497 7.37824,-0.71698 9.00053,-6.23192 10.17875,-9.93108 0.21433,-0.32151 -4.99313,-1.90469 -8.37918,-1.90331 0.0962,0.11582 -6.46853,-0.33676 -9.16926,0.20942 z"
     id="path3783"
     inkscape:connector-curvature="0"
     sodipodi:nodetypes="ccccc" />
  <path
     style="fill:none;stroke:#ffffff;stroke-width:6;stroke-linecap:butt;stroke-linejoin:miter;stroke-miterlimit:4;stroke-opacity:1;stroke-dasharray:none"
     d="m 492.33852,1044.7066 c 52.81796,-60.09205 78.03304,-129.0823 97.35944,-201.47794"
     id="path2995"
     inkscape:connector-curvature="0"
     sodipodi:nodetypes="cc" />
  <path
     style="fill:none;stroke:#ffffff;stroke-width:6;stroke-linecap:butt;stroke-linejoin:miter;stroke-miterlimit:4;stroke-opacity:1;stroke-dasharray:none"
     d="m 482.34789,1065.9089 c 48.9315,-7.4156 98.20046,-8.5185 144.69166,18.5815"
     id="path2997"
     inkscape:connector-curvature="0"
     sodipodi:nodetypes="cc" />
  <path
     style="fill:none;stroke:#000000;stroke-width:9;stroke-linecap:butt;stroke-linejoin:miter;stroke-miterlimit:4;stroke-opacity:1;stroke-dasharray:none"
     d="m 378.09077,746.86153 c -22.34899,2.7801 -31.81796,-25.25769 -1e-5,-25.057 l 252.78088,-0.73697"
     id="path3771"
     inkscape:connector-curvature="0"
     sodipodi:nodetypes="ccc" />
  <path
     style="fill:none;stroke:#000000;stroke-width:9;stroke-linecap:butt;stroke-linejoin:miter;stroke-miterlimit:4;stroke-opacity:1;stroke-dasharray:none"
     d="m 375.7296,655.47719 0.15025,64.8534"
     id="path3773"
     inkscape:connector-curvature="0"
     sodipodi:nodetypes="cc" />
  <path
     style="fill:none;stroke:#000000;stroke-width:9;stroke-linecap:butt;stroke-linejoin:miter;stroke-miterlimit:4;stroke-opacity:1;stroke-dasharray:none"
     d="m 630.13467,656.95113 -269.7312,-2.21091 c -20.40702,1.7196 -21.99725,-28.25054 0.73697,-28.00488 l 270.46817,1.47394"
     id="path3775"
     inkscape:connector-curvature="0"
     sodipodi:nodetypes="cccc" />
  <path
     style="fill:#ffffff;stroke:#ffffff;stroke-width:1px;stroke-linecap:butt;stroke-linejoin:miter;stroke-opacity:1;fill-opacity:1"
     d="m 477.02415,1113.6613 c 27.40477,0 64.33665,7.4344 62.0369,48.3096 -5.42076,41.9403 -45.82822,39.1698 -70.48448,23.7588 9.91697,23.4721 78.7073,34.0779 83.9478,-19.535 0.56345,-46.7186 -33.64043,-61.0402 -75.50022,-52.5334 z"
     id="path3958"
     inkscape:connector-curvature="0"
     sodipodi:nodetypes="ccccc" />
  <path
     style="fill:none;stroke:#000000;stroke-width:4;stroke-linecap:butt;stroke-linejoin:miter;stroke-miterlimit:4;stroke-opacity:1;stroke-dasharray:none"
     d="m 483.10905,680.16569 c 11.75572,-11.96383 26.71384,-2.0942 26.53093,7.92244 -0.44658,11.30358 -13.15759,21.49357 -25.79396,6.81698"
     id="path3785"
     inkscape:connector-curvature="0"
     sodipodi:nodetypes="ccc" />
  <path
     style="fill:none;stroke:#000000;stroke-width:4;stroke-linecap:butt;stroke-linejoin:miter;stroke-miterlimit:4;stroke-opacity:1;stroke-dasharray:none"
     d="m 484.95148,678.32328 c 8.55492,-8.73108 28.50376,-6.91312 28.37336,9.9491 0.11813,3.17472 -1.15486,6.93921 -3.88594,9.99232 -5.61839,6.28092 -15.11114,8.99851 -24.11893,-2.0699"
     id="path3787"
     inkscape:connector-curvature="0"
     sodipodi:nodetypes="ccsc" />
  <path
     style="fill:#da121a;fill-opacity:1;stroke:#da121a;stroke-width:3;stroke-linecap:butt;stroke-linejoin:miter;stroke-miterlimit:4;stroke-opacity:1;stroke-dasharray:none"
     d="m 581.05483,1285.6676 49.47991,4.0795 -1.96887,166.2886 c -23.17668,-4.2148 -36.98602,-19.0184 -43.67164,-40.8504 -10.64241,-34.753 -3.48048,-83.9493 -3.8394,-129.5177 z"
     id="path3789"
     inkscape:connector-curvature="0"
     sodipodi:nodetypes="cccsc" />
  <path
     style="fill:#da121a;fill-opacity:1;stroke:#da121a;stroke-width:3;stroke-linecap:butt;stroke-linejoin:miter;stroke-miterlimit:4;stroke-opacity:1;stroke-dasharray:none"
     d="m 495.01817,1278.5354 c 20.91716,16.6251 47.10689,20.2503 70.67139,23.6815 6.0244,0.773 2.89681,-10.6566 3.68485,-16.8654 -25.83127,-2.9711 -51.29404,-3.3967 -77.1253,-16.6125 -8.23184,-3.4118 -4.64101,2.5672 2.76906,9.7964 z"
     id="path3791"
     inkscape:connector-curvature="0"
     sodipodi:nodetypes="ccccc" />
  <path
     style="fill:#3f2538;fill-opacity:1;stroke:#3f2538;stroke-width:2;stroke-linecap:butt;stroke-linejoin:miter;stroke-miterlimit:4.19999980999999960;stroke-opacity:1;stroke-dasharray:none"
     d="m 852.18819,124.0351 c 5.08242,-5.47547 9.29596,-11.82168 15.09375,-14.64728 4.51662,-2.20122 9.80717,-2.45336 18.43654,2.72482 1.57257,-2.21626 5.52113,-3.14024 9.04756,-4.47341 5.27407,-1.99387 8.42237,-7.741674 13.05324,-11.350754 7.99678,-6.232304 17.49324,-10.468976 28.94246,-9.557939 l 0.0441,11.332299 c 22.29353,-10.790041 35.02566,-1.38315 50.72468,6.668284 -12.86015,4.90175 -35.29823,15.20067 -34.74781,24.96476 7.18505,8.82947 11.51154,20.55467 13.85906,30.07522 8.5407,-3.84489 11.71371,-10.20321 15.19658,-15.24067 12.9693,9.59547 3.34409,29.31843 -15.76179,40.17008 3.56872,9.90055 17.92299,1.27403 23.31799,-7.03508 9.73865,13.91677 3.37054,24.41404 -5.97061,31.1349 -6.0968,4.3866 -13.59701,6.34302 -18.23927,9.428 -0.66138,3.57186 -3.62517,11.8951 -3.27704,14.32674 30.12948,-14.40303 60.51497,-39.09182 79.86587,-66.90122 16.4373,-23.62225 25.8431,-48.86452 39.8587,-74.754378 14.2446,9.166078 19.4588,20.161798 21.837,30.221148 3.3191,14.03871 -2.6392,31.70207 -4.6582,41.25209 13.6972,-17.8528 32.0954,-37.98319 49.2636,-51.67079 17.6477,20.89541 11.4016,43.44355 -1.7055,65.10632 -14.0823,23.27444 -49.4971,58.64512 -67.4329,76.72778 l 21.6839,-16.38582 16.5997,-10.51788 c 22.6453,-14.45032 47.8407,-35.27602 71.7625,-52.9175 8.0246,20.26648 2.8039,38.25877 -7.1776,53.86022 -9.2895,14.5197 -27.1288,30.39096 -46.3732,42.6544 -19.0162,12.11797 -39.4324,20.67946 -49.6686,26.52314 12.0947,-5.66738 29.7659,-11.9822 47.0359,-19.59915 13.8691,-6.117 26.3828,-11.64131 37.1931,-18.11282 9.1275,28.39554 -9.2245,48.44257 -33.9269,63.17373 -12.4854,7.4456 -27.3958,14.78258 -42.8415,19.98434 -19.3979,6.53275 -40.1011,10.41715 -50.6548,12.98934 15.0672,1.95924 66.4042,-3.35598 66.4838,4.45942 0.2899,12.79452 -2.7365,19.98355 -11.4348,29.68505 -7.6976,8.58539 -21.0227,15.98675 -37.4019,15.99444 -10.8564,0.005 -22.7403,-4.70909 -34.4855,-9.17547 14.704,14.55751 41.7575,35.59586 62.8899,51.41176 15.5239,11.61846 29.2635,19.77077 25.2587,23.21946 -14.6167,14.18992 -26.7022,15.76766 -41.2631,15.29456 -24.1972,-0.78619 -46.6645,-15.72038 -66.9874,-34.69205 -6.58521,-6.14738 -11.65961,-14.19858 -17.7972,-20.34493 -2.96409,5.76196 -4.7691,13.46005 -10.74505,19.02076 5.13288,7.22229 9.70176,14.64108 15.11769,20.74609 9.63186,10.85737 20.39526,19.10703 30.74636,25.73449 15.7547,10.08715 31.9978,15.66429 46.9729,16.9247 16.2369,1.3666 29.8608,1.29255 43.4752,-7.15069 15.4027,-8.00874 8.967,-34.97617 16.4075,-49.71762 4.8666,-9.64185 14.1946,-17.41031 16.8779,-26.75427 1.4651,-4.61229 1.8903,-8.95489 1.223,-13.3251 -0.7415,-4.85528 -2.7756,-9.74464 -5.0433,-15.07576 5.5291,-1.42219 12.9619,3.00064 19.8687,11.22207 3.3544,-7.56986 9.3135,-14.05714 15.4034,-16.0031 7.6104,-2.54639 15.7026,-6.65454 15.0089,-11.81797 0.9555,-6.51439 -4.9607,-7.40575 -11.9568,-7.78328 1.3437,-4.35418 4.6051,-7.75103 8.8714,-10.46111 5.2678,-3.34621 11.5907,-5.27006 18.2046,-2.15591 7.9735,3.96295 11.5534,9.52792 13.0539,16.38753 1.281,5.85635 1.6345,12.65634 -1.6185,20.20869 -3.6509,8.47591 -11.5346,17.89943 -21.6813,28.00021 11.8448,4.3004 15.7245,12.47534 15.9782,20.86672 -3.8442,-2.72526 -7.1931,-2.62015 -10.2834,-1.7954 -4.1268,1.10138 -11.3156,5.86185 -15.0709,8.94748 -7.1902,5.90797 -9.8264,15.94383 -15.2941,26.76399 -6.5328,12.92805 -16.4201,26.12443 -27.244,36.1314 -10.7645,9.95207 -22.4512,15.31212 -34.2244,17.87094 -21.1833,4.25083 -40.7853,3.12702 -60.1006,-1.01434 -10.5937,-2.27138 -21.7671,-6.05219 -32.0379,-11.15369 -6.4567,-3.20705 -14.5394,-7.39683 -21.65213,-12.29204 -4.41196,-3.03646 -7.86373,-7.22479 -12.09925,-8.95356 -0.73459,5.98085 -1.37972,12.37702 -0.53581,19.77662 0.65321,5.72759 1.91275,12.05637 3.98523,19.25907 1.15694,5.41539 3.4086,11.1275 6.28331,16.88405 7.26845,14.55485 17.71065,29.39376 14.56135,40.4388 -2.2075,6.59594 -7.8621,13.45272 -14.35274,14.41888 0.11724,5.24764 -3.91407,6.18487 -7.20747,7.33974 1.42412,11.96165 -7.367,19.01306 -14.15832,25.92357 -1.62395,-2.22429 -3.1637,-2.735 -4.78766,-5.90606 -2.54498,-4.96952 -2.54654,-13.68675 -7.95766,-12.93835 -5.4493,-0.23813 -4.64592,6.17288 -2.98496,11.00725 1.74233,5.07117 -0.23897,9.69824 -5.35291,13.46319 0.0391,3.10716 0.49424,8.27216 6.01488,8.63854 -6.76962,10.16282 -21.99233,15.01844 -30.55146,-4.73016 -2.67403,1.27634 -4.30229,4.71748 -7.64436,0.64941 -2.81432,-4.00896 0.14392,-15.58389 0.45497,-21.46807 -1.15012,1.26596 -5.64642,7.52672 -6.10666,9.36144 -1.72698,6.88451 -5.58223,10.65019 -11.76164,10.95815 -6.29514,-0.1645 -11.02579,-3.45723 -12.61702,-13.63722 -8.57558,-1.33219 -13.69204,4.81498 -17.60776,10.13973 -6.88753,-12.11899 -6.90316,-29.06547 10.6388,-34.26541 3.3127,-3.51155 3.39514,-6.42867 7.31769,-8.05527 0.26416,-3.86817 -2.42763,-7.70366 2.1506,-11.15992 6.72785,-7.83467 1.56078,-12.98281 -8.38197,-12.76736 2.42715,-9.52294 6.44072,-12.1494 11.9798,-12.72734 5.56879,-0.58105 12.91289,2.11385 19.56982,5.58204 7.7867,-2.95154 10.37015,0.85309 11.57479,3.75804 1.48314,6.08468 -0.28751,11.97795 -1.53814,16.0123 4.49687,-1.64765 8.59455,-5.05063 11.58267,-9.58162 1.57566,-2.38923 3.20807,-4.97034 3.6328,-8.03812 1.10231,-5.08758 0.7993,-12.2522 -7.51211,-20.27947 -10.60703,4.24589 -29.01798,9.9414 -43.5353,-9.11955 14.75112,-13.89538 4.01883,-41.71816 5.49378,-63.57625 -0.32324,-0.64647 -7.8199,-1.47853 -11.2609,-1.38479 -14.51973,0.39558 -27.81143,-1.40713 -39.08806,9.53562 -2.04493,1.98438 -3.83215,4.60288 -5.85105,7.45906 0.95179,2.81034 2.14517,9.07357 0.81129,13.57266 9.25129,11.70715 10.07864,22.35342 6.68634,30.24682 -7.97509,16.78296 -29.90989,12.33378 -30.30897,18.41147 -2.68441,9.56797 -5.6266,16.31098 -12.69759,20.47795 -7.14864,4.21274 -14.85187,4.1163 -18.11842,2.08438 3.01875,-3.98776 9.76847,-12.53084 5.25527,-20.34162 -1.81614,5.37896 -4.34782,6.77139 -6.94563,4.86524 -5.54051,-0.27774 -9.0615,-0.52763 -11.92083,-0.13508 -0.56692,13.39886 -3.21962,20.02927 -11.42444,20.23539 -4.00751,-0.59523 -8.54267,-2.2041 -11.28821,-2.82206 -4.56299,4.50968 -5.87681,10.89685 -5.66617,16.08848 -4.44393,1.69549 -10.69894,-0.50609 -14.43758,-5.80338 -3.15467,-4.46987 -4.65508,-11.07519 -0.37413,-20.09815 -0.54986,-3.47191 -5.71081,-3.99121 -2.3512,-9.07034 1.9007,-2.87352 15.60871,-8.25868 17.07077,-15.09545 -2.79866,-1.8604 -7.43214,1.55153 -9.55806,2.34579 -7.10448,2.65428 -13.56395,0.20911 -17.66242,-4.23942 -1.54546,-1.67748 -2.47453,1.70425 -6.62609,-1.86441 -1.35741,-3.16952 -4.34427,-2.49891 -6.47127,-0.94854 -3.13635,2.28609 -6.39573,3.02212 -8.96781,0.33924 -2.23248,-2.88199 -1.4113,-9.46096 2.66745,-15.37802 2.7442,-3.98102 5.1879,-6.45934 12.55515,-9.20264 5.09401,-0.96774 8.31286,-4.07886 11.45706,-4.76612 9.85334,-2.15373 15.2909,6.35624 24.17331,5.35336 1.02198,-0.57689 -7.06078,-3.18774 -12.21006,-7.12205 -3.4292,-2.62008 -5.52842,-6.09259 -5.24601,-8.97183 0.35659,-3.63541 3.05262,-6.80983 8.59708,-8.91972 -2.9189,-1.1786 -5.83669,-2.36164 -8.0773,-6.2534 8.34838,-8.6885 18.28255,-14.04214 35.95704,3.64781 4.76746,0.88741 11.36745,0.23834 12.52885,9.64066 1.17779,5.56279 -12.11622,19.65471 -0.95405,17.10868 5.01245,-0.0368 13.35092,-2.19395 19.03882,-3.58169 -11.33575,-14.28582 -21.36017,-31.55257 -26.44468,-52.08963 -3.7587,0.41425 -9.22231,0.51786 -13.36146,0.13238 -8.82492,-0.82186 -16.70342,-3.86692 -24.87706,-10.86445 -5.8337,-4.99428 -11.08874,-11.09088 -15.17594,-21.57717 9.57046,0.73538 16.97213,0.84676 23.41156,-1.0941 3.83079,-1.1546 5.70096,-4.59693 9.33085,-5.92166 5.86153,-2.13917 13.62764,-1.82396 21.56394,-0.39009 25.98708,-17.56346 55.31598,-18.98122 84.48616,-12.53469 18.02058,3.9825 35.98059,12.29374 53.0547,17.67574 -20.77651,-11.33154 -40.54958,-35.62477 -46.19508,-50.62856 -6.98115,-0.52247 -13.62069,-1.90068 -20.48971,-2.3857 -10.23229,-0.7225 -20.499,-1.84146 -31.05894,-0.55436 -4.43776,0.5409 -9.18778,2.3409 -13.97472,3.3215 -4.2987,0.88059 -8.62717,0.86953 -12.78603,2.57401 -3.25,1.33199 -5.36689,4.01289 -8.76119,5.64298 -2.0328,-5.60842 -5.72571,-10.82959 -1.95619,-20.95092 -5.50901,-0.44071 -12.24091,0.17349 -17.00426,0.29372 -5.30665,0.13394 -13.57613,-0.655 -18.22929,-0.24963 2.749,4.78377 7.92469,12.02727 14.02209,14.13231 6.42044,5.65006 2.14422,9.50107 2.36707,13.8096 2.72089,7.14088 -0.24367,13.18087 -3.54122,17.67432 -2.81003,3.82913 -7.3887,6.13175 -11.4867,7.2675 -4.4376,1.22987 -7.67836,1.28879 -10.46271,-0.92636 -2.17009,-1.84417 1.93379,-5.89442 3.99573,-9.85569 1.38021,-2.65157 0.8419,-6.69436 -0.67461,-8.57783 -9.95086,0.73318 -7.97442,-9.36781 -10.79312,-16.41517 -5.18553,0.16922 -10.42557,3.89497 -13.99766,8.61139 -3.49165,4.61023 -4.85948,9.24483 -8.06161,10.64788 -2.3302,1.08017 -4.85841,2.04925 -7.3763,0.65663 -2.2684,-1.25464 -4.52843,-4.74061 -6.62772,-6.32277 -4.85534,4.46254 -4.02492,9.07592 -5.77639,12.91769 -3.11719,1.78858 -12.18533,-3.10591 -12.27429,-12.40154 -0.049,-5.11609 1.95693,-11.73161 10.73299,-18.90956 -0.134,-2.09959 0.46198,-4.18618 1.34712,-6.23215 0.7447,-1.72133 0.29243,-4.36797 4.24173,-5.0613 1.65708,-0.009 3.25089,1.35475 4.79115,1.22358 6.5533,-0.5581 12.13723,-3.7112 17.49975,-7.12698 -6.85855,-1.404 -17.89595,1.5822 -23.76211,-0.68333 -2.40448,-0.92863 -2.86779,-5.63991 -5.37634,-6.28561 -7.96841,-0.24677 -8.31847,1.22442 -13.18223,4.95061 -0.90691,-3.19969 -0.91792,-7.26376 0.14503,-12.01852 1.66513,-7.44844 5.70527,-14.59742 19.33469,-15.75498 1.57774,-1.59288 3.62606,-3.01744 5.84904,-2.94262 1.88462,0.0634 5.76812,1.54307 8.31828,3.55882 1.97817,1.56362 2.67906,3.73481 4.04574,4.00373 -0.3489,-5.07211 -2.45648,-14.05644 -5.5846,-18.43375 -6.30398,-5.8096 -0.87675,-11.84102 -0.73095,-13.19608 0.76003,-3.56097 -0.43613,-7.12193 -8.68263,-9.49033 2.05398,-5.48575 7.8755,-7.88411 12.13725,-7.98946 7.2114,-0.17828 15.42018,4.57195 17.30501,9.99873 1.07051,3.08221 0.94509,5.84384 3.21174,7.48106 5.342,3.48195 4.28125,10.87352 3.84006,18.25046 -0.23523,3.93332 0.11726,8.10099 -0.36463,11.43114 -2.02738,6.52059 3.56706,6.80566 11.3215,6.84155 5.18585,0.024 11.61262,-0.55214 18.15329,-0.98984 8.49446,-0.56844 17.89655,-0.3516 24.30649,-0.68462 -6.14825,-7.29564 -3.2441,-14.30866 -3.84225,-21.6043 12.72812,9.18414 23.18108,5.7521 33.23333,4.23278 11.33052,1.91595 3.5426,-5.73664 2.8252,-17.87488 -0.18943,-3.20506 -0.55155,-6.72288 0.8532,-10.45986 0.47865,-1.29711 -6.43067,-7.33854 -13.41852,-15.03724 -6.86298,-7.56112 -13.74257,-16.7546 -20.21679,-20.94019 -6.50034,-2.78868 -6.42811,2.78097 -11.10084,4.56132 -1.6239,-1.71076 -0.22631,-5.36857 1.82566,-9.91157 2.82967,-6.26479 7.76392,-13.99783 15.50715,-18.68664 -3.50054,-4.5064 -6.27095,-12.92868 -10.07757,-20.69332 -3.03808,-6.19697 -7.53764,-12.32963 -10.84329,-17.7443 -7.12454,-11.67001 -13.05035,-19.13553 -17.45712,-10.59972 l -4.46335,15.06449 c -2.06498,5.46816 -9.41872,2.97438 -13.08762,6.45975 -4.24011,2.2966 -7.65847,2.74309 -10.79342,2.66728 -8.17071,-0.19759 -12.79592,-5.27548 -14.96068,-12.43254 4.51332,-0.37723 9.74224,0.91523 11.46457,-5.97432 -0.23157,-4.7576 -1.72607,-9.72568 3.64781,-13.54904 5.66842,-3.19056 12.14378,-8.15358 13.02792,-13.54903 1.50892,-5.68388 -14.53507,-13.59599 -25.73972,-19.37074 -6.75787,-2.20286 -1.29314,-12.19083 -8.47516,-10.57496 -4.41804,-2.61685 -10.52775,2.16037 -11.01603,-2.31946 3.35968,-7.53147 7.51123,-11.4975 12.38245,-13.84292 3.94855,-1.90117 8.28818,-2.9011 13.71151,-2.57345 3.32202,0.2007 7.11,0.31526 10.88726,1.21581 5.02571,1.51028 4.35763,7.20797 6.75654,11.82222 1.45795,2.80435 4.09603,6.40107 5.72884,7.22182 4.83414,1.13334 -1.09721,-7.93034 -1.87214,-16.90464 0.094,-4.71099 -5.2856,-8.05359 -8.76958,-11.87009 -3.64034,-4.4305 2.94277,-8.38362 3.7135,-11.0497 2.73229,-4.037384 -3.0931,-8.616076 -8.55266,-10.442541 9.81733,-8.089486 20.79501,-7.659486 30.37389,4.969127 2.53363,-2.662777 8.01515,1.4544 7.96938,4.410984 l -1.25582,15.50535 2.10714,10.04471 c 0.80792,6.97121 2.2224,8.32358 3.78931,9.14116 2.30213,1.20119 4.93327,-0.68639 6.45315,-3.4683 3.81756,-2.72345 2.23373,-10.81776 4.90441,-15.90444 1.50375,-2.8641 4.03054,-5.42625 10.42842,-3.94208 3.16583,0.50111 2.36316,-7.58427 2.2348,-11.3764 6.78457,-0.14184 13.47192,7.05589 13.62579,16.27633 0.0651,3.90055 -2.21399,8.16309 -4.24569,12.38509 -0.93095,3.64209 4.67452,5.54727 0.67375,10.66438 -3.80534,5.37266 -11.32876,-1.10135 -12.32922,8.23665 -2.10233,1.72313 -2.70635,3.88687 -4.53735,6.35239 -1.39734,1.88158 -4.00729,3.93893 -5.59588,6.11033 -1.22653,1.67651 -0.30254,5.84457 -2.42242,7.1072 4.35967,6.30476 10.15636,15.15724 14.6494,23.4228 7.14324,13.14095 12.81317,24.79838 17.96635,22.37577 0.63729,-2.78882 1.99893,-4.30156 3.62723,-5.37698 3.9511,-2.60949 8.54813,-2.8441 9.54764,-1.53597 1.83125,2.3967 1.18235,13.7909 4.46867,16.52936 3.62802,8.75164 11.08861,17.49919 16.98743,25.68313 6.51588,-7.08872 14.33674,-13.28973 23.63081,-18.65272 2.39708,-1.38319 6.0054,-2.77411 8.40178,-4.20633 6.34812,-3.79402 12.41369,-8.56574 18.65486,-12.747 5.68464,-3.80842 11.71815,-7.08635 14.25931,-9.48633 l -40.98568,1.81977 c -6.4757,0.16053 -12.98128,1.62206 -15.01549,-0.37833 -3.11762,-3.06578 -0.90641,-7.21114 4.45958,-10.65773 5.83975,-3.75088 18.05825,-4.81003 22.6695,-5.79337 -10.00738,-2.9891 -34.41465,-0.41147 -47.03464,-1.99297 -8.52773,-1.06867 -14.35611,-4.06545 -19.37556,-8.10914 -4.32283,-3.48249 -8.41532,-7.61824 -8.7946,-13.40785 0.42019,-8.79407 6.17442,-15.07671 17.95526,-15.69673 -1.78916,5.23202 -1.82531,10.03399 3.82803,12.89207 7.18643,3.63315 14.94467,2.59767 25.10071,4.46951 15.34221,2.8277 35.32462,0.14429 45.4907,0.35639 -3.01608,-3.86291 -6.76678,-7.50934 -12.72095,-8.44012 -3.7406,-0.58475 -8.35086,1.77922 -14.19498,-0.0274 -4.69532,-1.45149 -11.52629,-5.29481 -16.73144,-3.45493 -5.334,-1.09205 -9.93102,0.62412 -15.26502,5.42703 -4.8359,-8.26123 -3.16745,-31.03829 21.8869,-38.47324 z"
     id="path3793"
     inkscape:connector-curvature="0"
     sodipodi:nodetypes="cscssccccccccsccscsccsccccsscscssccsscscssccssscscscccccscssccsssscssscscsccccscscccccscccccccscccsccccssccccscccccccscscsscscscscsscccccccsscsscsccssssccscccsscsccscsccscscscsccscssccccsscscsscccscsccscsscccscccccccsscscccccccccscsccscccsscscssccsssccsscssccsscsscccc" />
  <path
     style="fill:#453454;fill-opacity:1;stroke:#453454;stroke-width:2;stroke-linecap:butt;stroke-linejoin:miter;stroke-miterlimit:4;stroke-opacity:1;stroke-dasharray:none"
     d="m 633.81673,715.8 2.38514,79.65299 c 24.16016,-2.80779 49.36293,11.43463 75.47548,10.23504 15.28334,-1.16502 38.5027,-10.21041 57.06316,-11.07335 29.49694,-1.19005 61.85605,15.91843 92.30705,12.37463 17.81803,0.47527 38.25923,-11.45155 61.86736,-10.74595 21.66412,-0.85515 49.02474,13.04974 71.50961,12.53832 22.15827,2.04977 42.81297,-14.14232 63.36617,-13.1311 22.8803,-1.91175 46.6471,13.8981 70.7052,14.28275 27.4554,0.32742 47.1333,-12.1486 71.6056,-11.38668 18.7681,0.81573 42.5549,4.68041 48.0277,12.34073 l 0.1975,-90.39894 c -12.7215,-2.95524 -32.2696,-3.54158 -47.4688,-2.78032 -17.6719,1.12871 -33.1946,11.03237 -50.1673,11.70001 -26.334,0.14268 -46.7161,-13.4016 -75.3118,-14.28274 -24.9061,0.75599 -43.7435,13.45737 -61.1787,12.42257 -21.60996,0.81202 -49.90404,-12.36116 -77.84075,-9.79189 -21.59456,-1.20345 -45.83032,12.08634 -64.51787,10.66411 -28.08386,1.68726 -50.15975,-11.02655 -80.5591,-10.90965 -26.0081,-0.41584 -47.24593,8.69507 -71.34592,8.77004 -28.1104,-0.75185 -57.237,-16.02106 -86.11973,-10.48057 z"
     id="path3977"
     inkscape:connector-curvature="0"
     sodipodi:nodetypes="ccccccccccccccccccccc" />
  <path
     style="fill:#0f47af;fill-opacity:1;stroke:#0d3e99;stroke-width:2;stroke-linecap:butt;stroke-linejoin:miter;stroke-miterlimit:4;stroke-opacity:1;stroke-dasharray:none"
     d="m 637.8081,727.07793 0.47703,56.28926 c 31.58731,-4.32611 61.60652,12.95617 91.11228,12.87975 20.42574,-0.67926 34.07681,-13.80938 62.96764,-11.92569 29.9837,5.07858 55.27352,13.12869 80.61767,12.40271 19.80814,-1.07702 43.33003,-13.38957 75.8474,-12.40272 22.65809,2.14884 39.14631,11.83565 62.01358,12.40272 20.3351,0.2314 42.4327,-9.92646 63.9217,-10.4946 24.9645,0.87356 50.883,11.86966 75.3704,12.40271 18.3704,-0.0185 27.548,-9.47492 41.5014,-10.01758 16.6462,-0.75014 37.1709,3.61303 53.9041,5.24731 l 0.477,-56.76629 c -10.1273,-5.13197 -30.3176,-10.15046 -45.3176,-8.5865 -24.8168,2.88879 -48.9447,14.18759 -70.6001,12.40271 -27.3561,0.49676 -41.7602,-15.44236 -71.0771,-13.35677 -16.3194,1.82088 -42.7651,13.62141 -62.96765,12.87975 -32.85621,0.0123 -51.19601,-13.84618 -80.14064,-12.40272 -21.14823,0.15895 -46.11267,13.28593 -69.16901,10.49461 -28.68075,-4.6521 -42.31302,-13.16462 -74.41631,-10.97164 -26.16759,0.66428 -43.94859,10.81231 -64.39872,10.97164 -23.85138,2.32809 -46.74871,-17.19353 -70.12307,-11.44866 z"
     id="path3979"
     inkscape:connector-curvature="0"
     sodipodi:nodetypes="ccccccccccccccccccccc" />
  <path
     style="fill:#453454;fill-opacity:1;stroke:#453454;stroke-width:2;stroke-linecap:butt;stroke-linejoin:miter;stroke-miterlimit:4;stroke-opacity:1;stroke-dasharray:none"
     d="m 633.32277,822.96327 2.38514,75.14411 c 24.16016,-2.64885 49.36293,10.78736 75.47548,9.65567 15.28334,-1.09907 38.5027,-9.63243 57.06316,-10.44653 29.49694,-1.12268 61.85605,15.01735 92.30705,11.67415 17.81803,0.44837 38.25923,-10.80332 61.86736,-10.13766 21.66412,-0.80674 49.02474,12.31104 71.50961,11.82857 22.15823,1.93374 42.81293,-13.34177 63.36613,-12.38779 22.8803,-1.80354 46.6471,13.11137 70.7052,13.47425 27.4554,0.30889 47.1333,-11.46091 71.6056,-10.74212 18.7681,0.76955 41.6009,5.45054 47.0737,12.67723 l 1.6287,-87.18988 c -12.7215,-2.78795 -32.7468,-2.46806 -47.946,-1.74989 -17.6719,1.06481 -33.1946,10.40786 -50.1673,11.03771 -26.334,0.1346 -46.7161,-12.64298 -75.3118,-13.47424 -24.9061,0.71319 -43.7435,12.69559 -61.1787,11.71937 -21.60992,0.76605 -49.904,-11.66144 -77.84071,-9.23761 -21.59456,-1.13532 -45.83032,11.40218 -64.51787,10.06045 -28.08386,1.59175 -50.15975,-10.40237 -80.5591,-10.29209 -26.0081,-0.3923 -47.24593,8.20287 -71.34592,8.2736 -28.1104,-0.70929 -57.237,-15.11416 -86.11973,-9.8873 z"
     id="path3977-9"
     inkscape:connector-curvature="0"
     sodipodi:nodetypes="ccccccccccccccccccccc" />
  <path
     style="fill:#0f47af;fill-opacity:1;stroke:#0d3e99;stroke-width:1.99999988;stroke-linecap:butt;stroke-linejoin:miter;stroke-miterlimit:4;stroke-opacity:1;stroke-dasharray:none"
     d="m 637.31414,833.60279 0.47703,49.91873 c 31.58731,-3.83651 61.60652,11.48985 91.11228,11.42208 20.42574,-0.60238 34.07681,-12.2465 62.96764,-10.576 29.9837,4.50381 55.27352,11.64285 80.61767,10.99904 19.80814,-0.95514 43.33003,-11.87421 75.8474,-10.99905 22.65809,1.90565 39.14631,10.49616 62.01354,10.99905 20.3351,0.20521 42.4327,-8.80304 63.9217,-9.30688 24.9645,0.7747 50.883,10.52631 75.3704,10.99903 18.3704,-0.0164 27.548,-8.40259 41.5014,-8.88384 16.6462,-0.66524 39.0791,3.47407 55.8123,8.26258 l 0.477,-52.88887 c -10.1273,-4.55116 -32.2258,-10.0637 -47.2258,-8.67674 -24.8168,2.56184 -48.9447,12.58191 -70.6001,10.99903 -27.3561,0.44054 -41.7602,-13.69467 -71.0771,-11.84512 -16.3194,1.6148 -42.7651,12.07981 -62.96761,11.42208 -32.85621,0.0109 -51.19601,-12.27913 -80.14064,-10.99904 -21.14823,0.14096 -46.11267,11.7823 -69.16901,9.30689 -28.68075,-4.12561 -42.31302,-11.67472 -74.41631,-9.72993 -26.16759,0.5891 -43.94859,9.58862 -64.39872,9.72993 -23.85138,2.0646 -46.74871,-15.24766 -70.12307,-10.15297 z"
     id="path3979-2"
     inkscape:connector-curvature="0"
     sodipodi:nodetypes="ccccccccccccccccccccc" />
  <path
     style="fill:#453454;fill-opacity:1;stroke:#453454;stroke-width:1.99999988000000010;stroke-linecap:butt;stroke-linejoin:miter;stroke-miterlimit:4;stroke-opacity:1;stroke-dasharray:none"
     d="m 631.29892,924.84256 2.38514,73.42194 c 24.16016,-2.58815 49.36293,10.54 75.47548,9.4342 15.28334,-1.0738 38.5027,-9.4115 57.06316,-10.2069 29.49694,-1.097 61.85605,14.6731 92.30705,11.4064 17.81803,0.4382 38.25923,-10.5555 61.86736,-9.9051 21.66412,-0.7883 49.02474,12.0287 71.50961,11.5573 22.15818,1.8895 42.81288,-13.0358 63.36608,-12.1037 22.8803,-1.7623 46.6472,12.8107 70.7053,13.1653 27.4554,0.3019 47.1333,-11.1982 71.6056,-10.4958 18.7681,0.7519 37.7846,2.995 43.2574,10.0561 l 4.9678,-82.37309 c -12.7215,-2.72412 -32.2696,-2.89947 -47.4688,-2.19781 -17.6719,1.0404 -33.1946,10.16936 -50.1673,10.78474 -26.334,0.13153 -46.7161,-12.35323 -75.3119,-13.16541 -24.9061,0.69686 -43.7435,12.40467 -61.1787,11.45082 -21.60987,0.74847 -49.90395,-11.39421 -77.84066,-9.0259 -21.59456,-1.10936 -45.83032,11.14081 -64.51787,9.82987 -28.08386,1.5553 -50.15975,-10.16402 -80.5591,-10.05627 -26.0081,-0.38327 -47.24593,8.01491 -71.34592,8.08404 -28.1104,-0.69308 -57.237,-14.76781 -86.11973,-9.66073 z"
     id="path3977-7"
     inkscape:connector-curvature="0"
     sodipodi:nodetypes="ccccccccccccccccccccc" />
  <path
     style="fill:#0f47af;fill-opacity:1;stroke:#0d3e99;stroke-width:1.99999988;stroke-linecap:butt;stroke-linejoin:miter;stroke-miterlimit:4;stroke-opacity:1;stroke-dasharray:none"
     d="m 640.68724,935.23822 0.47703,51.88593 c 31.58731,-3.98768 61.60652,11.94265 91.11228,11.87225 20.42574,-0.6262 34.07681,-12.72913 62.96764,-10.99279 29.9837,4.68123 55.27352,12.10169 80.61767,11.43249 19.80814,-0.9928 43.33003,-12.34218 75.8474,-11.43249 22.65809,1.98071 39.14631,10.90979 62.01354,11.43249 20.3351,0.2133 42.4327,-9.15 63.9217,-9.67365 24.9646,0.80516 50.8831,10.94105 75.3705,11.43245 18.3704,-0.018 27.548,-8.73369 41.5014,-9.23394 16.6462,-0.69142 33.3547,1.13185 50.0879,2.6383 l -0.9541,-51.00647 c -10.1273,-4.73053 -25.0703,-8.47698 -40.0703,-7.03542 -24.8168,2.66282 -48.9447,13.07774 -70.6001,11.43247 -27.3561,0.45794 -41.7603,-14.23429 -71.0772,-12.31184 -16.3194,1.67836 -42.7651,12.55583 -62.96761,11.87215 -32.85621,0.0111 -51.19601,-12.76304 -80.14064,-11.43246 -21.14823,0.14646 -46.11267,12.24657 -69.16901,9.67363 -28.68075,-4.28819 -42.31302,-12.13477 -74.41631,-10.11332 -26.16759,0.61224 -43.94859,9.96647 -64.39872,10.11332 -23.85138,2.14597 -46.74871,-15.84849 -70.12307,-10.5531 z"
     id="path3979-9"
     inkscape:connector-curvature="0"
     sodipodi:nodetypes="ccccccccccccccccccccc" />
  <path
     style="fill:#453454;fill-opacity:1;stroke:#453454;stroke-width:2;stroke-linecap:butt;stroke-linejoin:miter;stroke-miterlimit:4;stroke-opacity:1;stroke-dasharray:none"
     d="m 633.32278,1027.3665 2.36141,71.7248 c 23.91977,-2.5282 48.87177,10.2966 74.72451,9.2164 15.13127,-1.0491 38.1196,-9.1941 56.49539,-9.9713 29.20345,-1.0715 61.24059,14.3341 91.3886,11.1431 17.64075,0.4278 37.87856,-10.3119 61.25179,-9.6765 21.44857,-0.77 48.53695,11.751 70.7981,11.2903 21.93772,1.8458 42.38692,-12.7347 62.73562,-11.8241 22.6527,-1.7214 46.183,12.5148 70.0017,12.8612 27.1822,0.2949 46.6643,-10.9394 70.8931,-10.2534 18.5814,0.7346 25.2656,-1.7963 30.6839,5.1016 l 12.811,-76.679 c -12.5949,-2.661 -27.698,-1.9004 -42.746,-1.2149 -17.496,1.0164 -32.8643,9.9342 -49.6681,10.5355 -26.072,0.1284 -46.2513,-12.0677 -74.5625,-12.8612 -24.6583,0.6807 -43.3082,12.1179 -60.57,11.1861 -21.39486,0.7312 -49.40741,-11.1308 -77.06616,-8.8172 -21.37969,-1.0837 -45.37431,10.8833 -63.87592,9.6026 -27.80443,1.5194 -49.66067,-9.929 -79.75755,-9.8238 -25.74932,-0.3744 -46.77584,7.8297 -70.63604,7.8971 -27.83071,-0.6769 -56.6675,-14.4264 -85.26285,-9.4373 z"
     id="path3977-5"
     inkscape:connector-curvature="0"
     sodipodi:nodetypes="ccccccccccccccccccccc" />
  <path
     style="fill:#0f47af;fill-opacity:1;stroke:#0d3e99;stroke-width:2;stroke-linecap:butt;stroke-linejoin:miter;stroke-miterlimit:4;stroke-opacity:1;stroke-dasharray:none"
     d="m 637.27444,1037.5219 0.47228,50.6866 c 31.27302,-3.8955 60.99354,11.6666 90.20573,11.5978 20.2225,-0.6117 33.73776,-12.4349 62.34112,-10.7387 29.68536,4.5731 54.72355,11.822 79.81553,11.1682 19.61105,-0.9698 42.8989,-12.0569 75.09273,-11.1682 22.43265,1.9348 38.75681,10.6576 61.39647,11.1682 20.1328,0.2084 42.0105,-8.9384 63.2857,-9.45 24.7161,0.7866 50.3767,10.6882 74.6205,11.1681 18.1876,-0.016 27.2739,-8.5318 41.0885,-9.0204 16.4805,-0.6755 26.2766,-2.2675 42.8433,-0.7958 l 5.8016,-46.4544 c -10.0265,-4.6212 -24.8209,-8.2811 -39.6716,-6.8727 -24.5699,2.6012 -48.4577,12.7754 -69.8977,11.1682 -27.0839,0.4472 -41.3446,-13.9054 -70.3698,-12.0274 -16.1571,1.6397 -42.3396,12.2656 -62.34113,11.5978 -32.52929,0.011 -50.68662,-12.468 -79.34325,-11.1683 -20.93781,0.1432 -45.65386,11.9636 -68.48079,9.4501 -28.39538,-4.189 -41.89201,-11.8543 -73.67588,-9.8796 -25.90722,0.5982 -43.5113,9.7362 -63.75796,9.8796 -23.61406,2.0964 -46.28357,-15.4822 -69.42535,-10.3091 z"
     id="path3979-4"
     inkscape:connector-curvature="0"
     sodipodi:nodetypes="ccccccccccccccccccccc" />
  <path
     style="fill:#453454;fill-opacity:1;stroke:#453454;stroke-width:2;stroke-linecap:butt;stroke-linejoin:miter;stroke-miterlimit:4;stroke-opacity:1;stroke-dasharray:none"
     d="m 635.68398,1130.5348 2.36141,70.034 c 23.91977,-2.4686 48.87177,10.0539 74.72451,8.9991 15.13127,-1.0243 38.1196,-8.9773 56.49539,-9.7362 29.20345,-1.0463 61.24059,13.9962 91.3886,10.8804 17.64075,0.4177 37.87856,-10.0688 61.25179,-9.4484 21.44857,-0.7518 48.53695,11.474 70.7981,11.0242 21.93772,1.8022 42.38692,-12.4345 62.73562,-11.5454 22.6527,-1.6808 46.183,12.2198 70.0017,12.558 27.1822,0.288 33.1719,-11.3561 57.4007,-10.6863 18.5814,0.7173 -9.8146,2.1824 -4.3963,8.9177 l 33.7242,-72.7361 c -12.5949,-2.5983 -0.039,-7.2526 -15.0866,-6.5833 -17.496,0.9924 -32.8643,9.7 -49.6681,10.2871 -26.072,0.1254 -46.2513,-11.7832 -74.5625,-12.558 -24.6583,0.6647 -43.3082,11.8323 -60.57,10.9224 -21.39486,0.714 -49.40741,-10.8684 -77.06616,-8.6093 -21.37969,-1.0582 -45.37431,10.6267 -63.87592,9.3762 -27.80443,1.4836 -49.66067,-9.6949 -79.75755,-9.5922 -25.74932,-0.3656 -46.77584,7.6451 -70.63604,7.7109 -27.83071,-0.6609 -56.6675,-14.0863 -85.26285,-9.2148 z"
     id="path3977-5-3"
     inkscape:connector-curvature="0"
     sodipodi:nodetypes="ccccccccccccccccccccc" />
  <path
     style="fill:#0f47af;fill-opacity:1;stroke:#0d3e99;stroke-width:2;stroke-linecap:butt;stroke-linejoin:miter;stroke-miterlimit:4;stroke-opacity:1;stroke-dasharray:none"
     d="m 639.63564,1140.4508 0.47228,49.4917 c 31.27302,-3.8036 60.99354,11.3916 90.20573,11.3244 20.2225,-0.5973 33.73775,-12.1417 62.34112,-10.4855 29.68536,4.4653 54.72355,11.5433 79.81553,10.9049 19.61105,-0.9469 42.8989,-11.7727 75.09273,-10.9049 22.43265,1.8892 38.75681,10.4063 61.39647,10.9049 20.1328,0.2035 42.0105,-8.7277 63.2857,-9.2272 24.7161,0.768 50.3767,10.4362 74.6205,10.9048 18.1876,-0.016 27.2739,-8.3307 41.0885,-8.8078 16.4805,-0.6595 -10.1528,-17.8097 6.4139,-16.3727 l 9.1747,-25.7159 c -10.0265,-4.5122 8.2354,-12.1336 -6.6153,-10.7584 -24.5699,2.5399 -48.4577,12.4743 -69.8977,10.905 -27.0839,0.4366 -41.3446,-13.5776 -70.3698,-11.7439 -16.1571,1.601 -42.3396,11.9764 -62.34113,11.3244 -32.52929,0.011 -50.68662,-12.1741 -79.34325,-10.905 -20.93781,0.1398 -45.65386,11.6815 -68.48079,9.2273 -28.39538,-4.0903 -41.89201,-11.5749 -73.67588,-9.6467 -25.90722,0.5841 -43.5113,9.5067 -63.75796,9.6467 -23.61406,2.047 -46.28357,-15.1172 -69.42535,-10.0661 z"
     id="path3979-4-1"
     inkscape:connector-curvature="0"
     sodipodi:nodetypes="ccccccccccccccccccccc" />
  <path
     style="fill:#453454;fill-opacity:1;stroke:#453454;stroke-width:2;stroke-linecap:butt;stroke-linejoin:miter;stroke-miterlimit:4;stroke-opacity:1;stroke-dasharray:none"
     d="m 635.68398,1229.7294 2.36141,71.7248 c 23.91977,-2.5282 48.87177,10.2966 74.72451,9.2164 15.13127,-1.0491 38.1196,-9.1941 56.49539,-9.9713 29.20345,-1.0715 61.24059,14.3341 91.3886,11.1431 17.64075,0.4278 37.87856,-10.3119 61.25179,-9.6765 21.44857,-0.77 48.53695,11.751 70.7981,11.2903 21.93772,1.8458 42.38692,-12.7347 62.73562,-11.8241 22.6527,-1.7214 20.5475,10.4909 44.3662,10.8373 27.1822,0.2949 -7.9799,-22.4079 16.2489,-21.7219 18.5814,0.7346 0.9793,-13.9395 6.3976,-7.0416 l 29.6765,-31.4794 c -12.5949,-2.661 17.5015,-10.6705 2.4535,-9.985 -17.496,1.0164 9.6367,-0.8597 -7.1671,-0.2584 -26.072,0.1284 -46.2513,-12.0677 -74.5625,-12.8612 -24.6583,0.6807 -43.3082,12.1179 -60.57,11.1861 -21.39486,0.7312 -49.40741,-11.1308 -77.06616,-8.8172 -21.37969,-1.0837 -45.37431,10.8833 -63.87592,9.6026 -27.80443,1.5194 -49.66067,-9.929 -79.75755,-9.8238 -25.74932,-0.3744 -46.77584,7.8297 -70.63604,7.8971 -27.83071,-0.6769 -56.6675,-14.4264 -85.26285,-9.4373 z"
     id="path3977-5-2"
     inkscape:connector-curvature="0"
     sodipodi:nodetypes="ccccccccccccccccccccc" />
  <path
     style="fill:#0f47af;fill-opacity:1;stroke:#0d3e99;stroke-width:2;stroke-linecap:butt;stroke-linejoin:miter;stroke-miterlimit:4;stroke-opacity:1;stroke-dasharray:none"
     d="m 639.63564,1239.8848 0.47228,50.6866 c 31.27302,-3.8955 60.99354,11.6666 90.20573,11.5978 20.2225,-0.6117 33.73775,-12.4349 62.34112,-10.7387 29.68536,4.5731 54.72355,11.822 79.81553,11.1682 19.61105,-0.9698 42.8989,-12.0569 75.09273,-11.1682 22.43265,1.9348 38.75681,10.6576 61.39647,11.1682 20.1328,0.2084 42.0105,-8.9384 63.2857,-9.45 24.7161,0.7866 16.6458,-0.1057 40.8896,0.3742 18.1876,-0.016 -9.1556,2.9367 4.659,2.4481 16.4805,-0.6755 -7.4543,-11.7121 9.1124,-10.2404 l 13.2224,-19.4697 c -10.0265,-4.6212 22.4024,-15.7019 7.5517,-14.2935 -24.5699,2.6012 0.7895,1.9815 -20.6505,0.3743 -27.0839,0.4472 -41.3446,-13.9054 -70.3698,-12.0274 -16.1571,1.6397 -42.3396,12.2656 -62.34113,11.5978 -32.52929,0.011 -50.68662,-12.468 -79.34325,-11.1683 -20.93781,0.1432 -45.65386,11.9636 -68.48079,9.4501 -28.39538,-4.189 -41.89201,-11.8543 -73.67588,-9.8796 -25.90722,0.5982 -43.5113,9.7362 -63.75796,9.8796 -23.61406,2.0964 -46.28357,-15.4822 -69.42535,-10.3091 z"
     id="path3979-4-3"
     inkscape:connector-curvature="0"
     sodipodi:nodetypes="ccccccccccccccccccccc" />
  <path
     style="fill:#453454;fill-opacity:1;stroke:#453454;stroke-width:2;stroke-linecap:butt;stroke-linejoin:miter;stroke-miterlimit:4;stroke-opacity:1;stroke-dasharray:none"
     d="m 635.68398,1330.9223 2.36141,71.7248 c 23.91977,-2.5282 48.87177,10.2966 74.72451,9.2164 15.13127,-1.0491 38.1196,-9.1941 56.49539,-9.9713 29.20345,-1.0715 61.24059,14.3341 91.3886,11.1431 17.64075,0.4278 37.87856,-10.3119 61.25179,-9.6765 21.44857,-0.77 48.53695,11.751 70.7981,11.2903 21.93772,1.8458 -0.11407,-26.9017 20.23462,-25.9911 22.6527,-1.7214 -12.5088,-5.6999 11.3099,-5.3535 27.1822,0.2949 -10.0037,-16.3364 14.2251,-15.6504 18.5814,0.7346 -0.37,-7.8679 5.0483,-0.97 l 39.7958,-26.7571 c -12.5949,-2.661 11.4299,-6.6228 -3.6181,-5.9373 -17.496,1.0164 10.3113,5.2119 -6.4925,5.8132 -26.072,0.1284 27.9568,-8.6946 -0.3544,-9.4881 -24.6583,0.6807 -43.3082,12.1179 -60.57,11.1861 -21.39486,0.7312 -49.40741,-11.1308 -77.06616,-8.8172 -21.37969,-1.0837 -45.37431,10.8833 -63.87592,9.6026 -27.80443,1.5194 -49.66067,-9.929 -79.75755,-9.8238 -25.74932,-0.3744 -46.77584,7.8297 -70.63604,7.8971 -27.83071,-0.6769 -56.6675,-14.4264 -85.26285,-9.4373 z"
     id="path3977-5-34"
     inkscape:connector-curvature="0"
     sodipodi:nodetypes="ccccccccccccccccccccc" />
  <path
     style="fill:#0f47af;fill-opacity:1;stroke:#0d3e99;stroke-width:2;stroke-linecap:butt;stroke-linejoin:miter;stroke-miterlimit:4;stroke-opacity:1;stroke-dasharray:none"
     d="m 639.63564,1341.0777 0.47228,50.6866 c 31.27302,-3.8955 60.99354,11.6666 90.20573,11.5978 20.2225,-0.6117 33.73775,-12.4349 62.34112,-10.7387 29.68536,4.5731 54.72355,11.822 79.81553,11.1682 19.61105,-0.9698 42.8989,-12.0569 75.09273,-11.1682 22.43265,1.9348 37.40757,5.2606 60.04727,5.7712 20.1328,0.2084 -13.30829,-7.5891 7.9669,-8.1007 24.7161,0.7866 -6.9659,-6.8519 17.2779,-6.372 18.1876,-0.016 -4.4332,-12.5795 9.3814,-13.0681 16.4805,-0.6755 -8.8036,-8.3391 7.7631,-6.8674 l 9.8493,-10.6996 c -10.0265,-4.6212 23.0771,-4.908 8.2264,-3.4996 -24.5699,2.6012 25.7504,-2.7408 4.3104,-4.348 -27.0839,0.4472 13.2995,-5.81 -15.7257,-3.932 -16.1571,1.6397 -42.3396,12.2656 -62.34113,11.5978 -32.52929,0.011 -50.68662,-12.468 -79.34325,-11.1683 -20.93781,0.1432 -45.65386,11.9636 -68.48079,9.4501 -28.39538,-4.189 -41.89201,-11.8543 -73.67588,-9.8796 -25.90722,0.5982 -43.5113,9.7362 -63.75796,9.8796 -23.61406,2.0964 -46.28357,-15.4822 -69.42535,-10.3091 z"
     id="path3979-4-11"
     inkscape:connector-curvature="0"
     sodipodi:nodetypes="ccccccccccccccccccccc" />
  <path
     style="fill:#453454;fill-opacity:1;stroke:#453454;stroke-width:2;stroke-linecap:butt;stroke-linejoin:miter;stroke-miterlimit:4;stroke-opacity:1;stroke-dasharray:none"
     d="m 633.66012,1432.7897 2.36141,75.7725 c 23.91977,-2.5282 48.87177,6.2489 74.72451,5.1687 15.13127,-1.0491 38.1196,-9.1941 56.49539,-9.9713 29.20345,-1.0715 30.88274,-7.9283 61.03075,-11.1193 0,0 30.24918,-5.0347 48.73678,-17.3829 13.42172,-8.9645 44.19718,-18.9633 49.51789,-24.6102 3.22644,-3.4242 30.7905,-2.6889 -57.21029,-6.4935 -27.80443,1.5194 -46.28758,-12.6275 -76.38446,-12.5223 -25.74932,-0.3744 -50.14893,10.5282 -74.00913,10.5956 -27.83071,-0.6769 -56.6675,-14.4264 -85.26285,-9.4373 z"
     id="path3977-5-38"
     inkscape:connector-curvature="0"
     sodipodi:nodetypes="cccccsscccc" />
  <path
     style="fill:#0f47af;fill-opacity:1;stroke:#0f47af;stroke-width:2;stroke-linecap:butt;stroke-linejoin:miter;stroke-miterlimit:4;stroke-opacity:1;stroke-dasharray:none"
     d="m 637.61178,1442.9451 -1.55158,74.9729 c 31.27302,-3.8955 63.0174,-12.6197 92.22959,-12.6885 20.2225,-0.6117 33.73776,-12.4349 62.34112,-10.7387 29.68536,4.5731 57.5531,-15.1419 57.5531,-15.1419 l 59.29485,-22.3569 c 0,0 -7.23597,-10.6672 -62.33327,-8.4601 -28.39538,-4.189 -38.51892,-8.4812 -70.30279,-6.5065 -25.90722,0.5982 -47.55901,11.0854 -67.80567,11.2288 -23.61406,2.0964 -46.28357,-15.4822 -69.42535,-10.3091 z"
     id="path3979-4-7"
     inkscape:connector-curvature="0"
     sodipodi:nodetypes="cccccccccc" />
  <path
     style="fill:none;stroke:#000000;stroke-width:4;stroke-linecap:butt;stroke-linejoin:miter;stroke-miterlimit:4;stroke-opacity:1;stroke-dasharray:none"
     d="m 557.33871,680.06583 c 11.75573,-11.96383 26.71385,-2.0942 26.53094,7.92244 -0.44658,11.30358 -13.15759,21.49357 -25.79397,6.81698"
     id="path3785-2"
     inkscape:connector-curvature="0"
     sodipodi:nodetypes="ccc" />
  <path
     style="fill:none;stroke:#000000;stroke-width:4;stroke-linecap:butt;stroke-linejoin:miter;stroke-miterlimit:4;stroke-opacity:1;stroke-dasharray:none"
     d="m 559.18114,678.22342 c 8.55493,-8.73108 28.50377,-6.91312 28.37337,9.9491 0.11813,3.17472 -1.15486,6.93921 -3.88594,9.99232 -5.61839,6.28092 -15.11114,8.99851 -24.11894,-2.0699"
     id="path3787-7"
     inkscape:connector-curvature="0"
     sodipodi:nodetypes="ccsc" />
  <path
     style="fill:none;stroke:#000000;stroke-width:4;stroke-linecap:butt;stroke-linejoin:miter;stroke-miterlimit:4;stroke-opacity:1;stroke-dasharray:none"
     d="m 413.47621,678.37928 c 11.75572,-11.96383 26.71384,-2.0942 26.53093,7.92244 -0.44658,11.30358 -13.15759,21.49357 -25.79396,6.81698"
     id="path3785-7"
     inkscape:connector-curvature="0"
     sodipodi:nodetypes="ccc" />
  <path
     style="fill:none;stroke:#000000;stroke-width:4;stroke-linecap:butt;stroke-linejoin:miter;stroke-miterlimit:4;stroke-opacity:1;stroke-dasharray:none"
     d="m 415.31864,676.53687 c 8.55492,-8.73108 28.50376,-6.91312 28.37336,9.9491 0.11813,3.17472 -1.15486,6.93921 -3.88594,9.99232 -5.61839,6.28092 -15.11114,8.99851 -24.11893,-2.0699"
     id="path3787-9"
     inkscape:connector-curvature="0"
     sodipodi:nodetypes="ccsc" />
  <path
     id="Wappen-1"
     class="wappenbg"
     d="m 12.259602,11.915232 1244.629798,0 0,886.813848 c 0,335.02062 -267.59603,624.05652 -622.31575,624.05652 -354.72054,0 -622.316568,-289.0359 -622.316568,-624.05652 l 0,-886.813848 z"
     inkscape:connector-curvature="0"
     style="fill:#ffffff;fill-opacity:0;fill-rule:evenodd;stroke:#000000;stroke-width:20;stroke-miterlimit:4;stroke-opacity:1;stroke-dasharray:none" />
  <path
     style="fill:none;stroke:#000000;stroke-width:15;stroke-linecap:butt;stroke-linejoin:miter;stroke-miterlimit:4;stroke-opacity:1;stroke-dasharray:none"
     d="m 630.0322,22.307841 0,1493.402559"
     id="path4222"
     inkscape:connector-curvature="0" />
  <path
     style="opacity:0.98999999;fill:#fcdd09;fill-opacity:1;stroke:#fcdd09;stroke-width:1px;stroke-linecap:butt;stroke-linejoin:miter;stroke-opacity:1"
     d="m 876.84578,117.70247 c -9.40558,0.17125 -12.55367,6.08346 -16.47175,13.80002 -8.33723,2.01216 -15.5659,4.59519 -20.05995,8.43751 -4.8371,4.13562 -8.67327,11.43712 -5.44316,13.87277 3.44829,2.35633 8.78432,-6.6974 15.49626,-5.14626 4.74601,0.74243 10.85297,3.42108 16.08497,5.62144 2.05935,-0.80742 3.87572,-0.96926 5.9407,-1.13365 4.9898,-0.39722 9.19537,0.47267 14.50903,3.43751 4.11901,3.02117 8.92771,15.09454 10.98101,21.93747 1.61303,5.37564 2.49814,9.41561 -1.89806,9.85582 -6.40308,2.12844 -12.40948,4.59549 -18.87242,4.91178 -4.01467,0.19648 -6.96315,2.77888 -11.14198,3.37703 -2.16793,0.31032 -4.92205,0.047 -7.16905,0.32355 -1.97182,0.24266 -4.15898,1.21928 -6.2,1.3918 -3.08466,1.6502 -2.0494,5.81578 0.0221,5.62356 4.1984,0.23575 5.38112,-1.78013 13.46675,-1.96397 2.82173,0.27553 5.81211,0.007 8.63383,-0.20046 3.73304,-1.32311 8.14847,-0.6524 12.94203,-0.6516 3.76199,6.4e-4 8.15897,0.27671 11.8689,0.0186 11.54569,0.61926 8.52874,-8.79988 8.9757,-14.59172 -0.97351,-2.97526 -3.29378,-5.95253 -4.03144,-8.99671 -0.64593,-2.66566 -1.23618,-5.94694 -2.52717,-8.90076 -1.45572,-3.33068 -4.60788,-7.12398 -6.57373,-10.24138 -2.19529,-3.48124 -3.13844,-6.4965 -5.94635,-9.66407 0.016,-3.68021 0.67368,-7.41325 -2.67675,-9.74687 -2.9511,-10.85849 0.3107,-19.99281 -9.90942,-21.37138 z"
     id="path3795"
     inkscape:connector-curvature="0"
     sodipodi:nodetypes="ccscccscscsssccccsccssscccc" />
  <path
     style="fill:#da121a;fill-opacity:1;stroke:#da121a;stroke-width:1px;stroke-linecap:butt;stroke-linejoin:miter;stroke-opacity:1"
     d="m 809.58697,156.5482 c -7.3225,2.80643 -9.45195,8.01809 -7.36971,12.71275 6.79338,11.50957 23.97904,13.65775 42.73875,14.19547 12.11658,0.3473 24.47759,-0.21456 35.93161,-0.3231 4.19427,-0.0397 8.586,0.30038 12.34549,0.3141 l 0.31421,-10.44757 c -3.209,0.28815 -6.23054,0.71386 -9.53126,0.99325 -20.86298,1.76596 -43.35118,2.51039 -64.84848,-3.07418 -7.83678,-1.86207 -9.31552,-8.20367 -9.58061,-14.37093 z"
     id="path3797"
     inkscape:connector-curvature="0"
     sodipodi:nodetypes="ccssccsccc" />
  <path
     style="fill:#fcdd09;fill-opacity:1;stroke:#fcdd09;stroke-width:1px;stroke-linecap:butt;stroke-linejoin:miter;stroke-opacity:1"
     d="m 725.38811,108.82937 c -1.13038,-0.0376 2.27725,2.77028 5.11299,5.95679 2.37927,2.67358 4.08323,5.55916 5.02439,7.78579 1.82247,4.31169 1.76595,9.1571 3.06226,13.54477 2.5015,8.46696 5.29899,15.94734 3.56643,20.61572 -5.11654,-2.67264 -11.49117,-8.75499 -18.42491,-12.89621 -3.78324,-2.6358 -7.1354,-12.15606 -9.94845,-7.55471 -2.27934,3.1912 -6.48995,5.73864 -10.13335,8.47516 -0.59515,3.06075 3.41702,2.08004 4.99577,2.92139 1.28576,0.68521 0.86006,1.94043 2.28533,3.19791 1.72494,1.52187 3.90723,1.78006 5.52208,2.70404 1.40571,0.80432 2.24754,2.29167 3.68416,3.2886 6.55139,4.54626 12.68776,9.23931 17.22905,14.60324 -3.25766,6.18997 -6.83969,9.10993 -14.55516,14.55516 -3.16729,1.79855 -3.57711,3.44846 -4.42182,5.71152 -3.44105,1.66441 -2.42885,2.97186 0,3.13213 6.40368,0.89963 5.31317,1.3162 11.2388,4.60606 2.59082,1.95926 5.60649,3.65827 3.86909,-3.5006 0.64693,-2.04701 2.87989,-3.81108 5.32804,-6.28482 2.20407,-2.22712 2.85457,-4.39721 5.54228,-6.79641 3.42872,-3.96677 12.55123,2.13695 17.71947,10.50925 3.16245,5.12305 4.47416,10.6816 6.0233,14.3816 2.13228,3.0311 5.19075,6.90018 7.79157,10.8978 1.88379,2.89551 3.35231,5.85847 4.89674,8.6193 3.94682,7.05538 6.97243,13.15925 10.91926,13.07574 0.80257,-2.14985 -0.46505,-5.45627 0.26423,-8.50014 1.08987,-4.54888 2.66607,-9.47562 1.20971,-11.39807 -6.07558,-8.71601 -13.92268,-19.04038 -20.22888,-30.00276 -2.24107,-3.89577 -3.54645,-7.32351 -5.3061,-11.28043 -1.29996,-2.92322 -3.09891,-6.47 -4.4061,-8.97419 -2.34625,-4.49473 -2.32985,-2.47052 -4.32803,-7.2263 -5.0736,-11.09023 -6.52556,-27.61292 -9.76486,-41.45459 -1.27518,-1.85694 -2.62406,-3.64019 -2.94789,-6.44849 0.21528,-3.66843 2.36636,-10.99335 -1.47394,-7.00122 -2.70222,2.06616 -2.82505,2.88163 -5.52727,3.13212 -6.71528,1.53258 -8.47558,1.87277 -13.81819,-2.39515 z"
     id="path3799"
     inkscape:connector-curvature="0"
     sodipodi:nodetypes="csssccccssssccccccscscsscscssscccccc" />
  <path
     style="fill:#fcdd09;fill-opacity:1;stroke:#fcdd09;stroke-width:1px;stroke-linecap:butt;stroke-linejoin:miter;stroke-opacity:1"
     d="m 690.19776,134.25485 c 7.01017,0.71039 11.50266,3.87238 13.26547,2.76363 3.48594,-1.5656 5.50333,-3.74175 7.55395,-6.63273 -1.49817,-1.87961 -3.92398,-3.01583 -7.36971,-2.94788 -5.43366,0.76875 -11.44425,3.59952 -13.44971,6.81698 z"
     id="path3801"
     inkscape:connector-curvature="0"
     sodipodi:nodetypes="ccccc" />
  <path
     style="fill:#fcdd09;fill-opacity:1;stroke:#fcdd09;stroke-width:1px;stroke-linecap:butt;stroke-linejoin:miter;stroke-opacity:1"
     d="m 727.78325,97.774806 c 2.61562,8.143604 3.20515,7.760014 9.02789,7.369704 2.9249,-0.74973 4.59087,-1.80136 3.15356,-4.97455 -0.20102,-6.164853 -10.20453,-8.55819 -12.18145,-7.922436 -4.1323,1.560975 -1.94768,3.26376 0,5.527282 z"
     id="path3803"
     inkscape:connector-curvature="0"
     sodipodi:nodetypes="ccccc" />
  <path
     style="fill:#fcdd09;fill-opacity:1;stroke:#fcdd09;stroke-width:1px;stroke-linecap:butt;stroke-linejoin:miter;stroke-opacity:1"
     d="m 789.50452,110.30331 c -1.91809,0.27056 -3.60981,3.73179 -5.24702,7.05107 -2.07987,4.2167 -3.36401,6.03535 -1.93844,8.05682 3.03328,2.3894 5.14059,5.09969 7.73818,1.84243 1.61544,-6.43344 2.53717,-11.59453 -0.55272,-16.95032 z"
     id="path3805"
     inkscape:connector-curvature="0"
     sodipodi:nodetypes="csccc" />
  <path
     style="fill:#fcdd09;fill-opacity:1;stroke:#fcdd09;stroke-width:1px;stroke-linecap:butt;stroke-linejoin:miter;stroke-opacity:1"
     d="m 705.12142,207.21492 c 1.32753,4.89529 4.63952,6.76503 10.13333,6.44848 4.64547,-0.91518 11.25852,-5.04521 11.6073,-8.47514 -0.87903,-2.47952 -4.28642,-2.48176 -6.63275,-2.02668 -1.49719,-0.16963 -3.66531,1.31929 -5.85987,2.4968 -3.30771,1.77478 -6.93012,0.85865 -9.24801,1.55654 z"
     id="path3807"
     inkscape:connector-curvature="0"
     sodipodi:nodetypes="ccccsc" />
  <path
     style="fill:#fcdd09;fill-opacity:1;stroke:#fcdd09;stroke-width:1px;stroke-linecap:butt;stroke-linejoin:miter;stroke-opacity:1"
     d="m 774.21238,123.56878 c -0.85987,1.73104 -1.4587,3.46402 -1.88839,5.04624 -0.43964,1.61887 -0.71948,3.08856 -2.46428,5.00872 -6.14984,6.76789 -10.94273,11.78174 -10.20248,17.02869 0.75092,2.89482 0.92121,5.46587 3.86908,8.10669 1.94179,3.34051 4.80229,-1.31145 8.7395,-6.5728 1.98513,-2.65276 4.48959,-5.26164 6.3673,-7.92862 1.53845,-2.18513 2.3508,-3.97765 3.31747,-5.39678 3.27017,1.33483 6.42053,-0.37993 9.02788,-2.5794 -0.77981,-3.61447 -7.38524,-3.52592 -10.16061,-6.79493 -3.28199,-3.86575 -3.53431,-11.67736 -6.60547,-5.91781 z"
     id="path3809"
     inkscape:connector-curvature="0"
     sodipodi:nodetypes="cssccssccsc" />
  <path
     style="fill:#da121a;fill-opacity:1;stroke:#da121a;stroke-width:1px;stroke-linecap:butt;stroke-linejoin:miter;stroke-opacity:1"
     d="m 809.95545,214.03189 c -1.38458,1.52162 -1.87626,2.98027 -2.9806,4.71986 -4.26794,6.72295 -8.2493,14.54754 -9.29543,22.81773 -0.21377,1.68993 0.38008,4.39751 -2.64762,5.62607 -2.10353,0.13632 -6.87871,-4.13206 -10.87032,-0.55272 -3.63589,3.93023 -9.27826,6.42015 -11.60728,12.5285 18.7988,5.95111 26.71893,20.75425 37.40124,35.0061 4.31963,-14.03077 9.77579,-26.35374 20.60234,-38.4196 -5.61021,-6.9797 -9.53615,-15.88219 -14.70657,-23.30168 -2.36363,-2.73539 -3.0289,-13.32949 -5.89576,-18.42426 z"
     id="path3811"
     inkscape:connector-curvature="0"
     sodipodi:nodetypes="cssccccccc" />
  <path
     style="fill:#fcdd09;fill-opacity:1;stroke:#fcdd09;stroke-width:1px;stroke-linecap:butt;stroke-linejoin:miter;stroke-opacity:1"
     d="m 691.01466,350.7154 c 0.35907,2.10333 -0.86019,5.22697 -3.2639,7.37438 -3.19194,2.85158 -7.57127,4.49667 -4.32556,4.76876 2.97254,0.62611 7.02777,0.16955 8.79475,2.00123 3.6465,2.03075 22.99701,-2.13422 26.45409,2.55245 -0.68968,2.85661 -7.71862,7.68131 -16.94658,11.97327 -4.98887,2.32034 -16.33323,3.21735 -16.10975,6.74741 0.53105,1.27281 3.06,2.29187 4.53926,3.73004 1.82267,1.77205 2.57609,4.00561 2.36909,6.02282 -0.87298,8.50719 -0.7761,10.85371 3.54824,11.49763 3.93499,0.41503 3.35166,-5.34057 8.07606,-11.48342 3.33904,-4.34156 9.0778,-8.20179 15.70426,-11.28496 2.19539,1.96554 3.21019,7.0478 5.40557,11.11305 1.85233,3.43 1.17484,5.40996 5.38833,7.43896 1.65306,0.91171 4.02997,-0.29067 7.05009,-3.11562 2.20238,-2.06004 7.94664,1.82274 9.64673,-1.43805 0.34301,-1.77272 -2.22059,-2.08151 -2.95417,-2.93711 -8.01601,-9.34948 -18.19529,-23.07073 -13.57399,-25.05958 3.53051,-2.39871 8.7792,-1.02111 14.97272,-1.42257 4.59594,-0.2979 9.87448,-0.91113 15.52404,-1.14651 6.13779,-0.25572 12.92918,0.48754 16.22059,-1.30998 5.02546,-1.80278 6.55733,-4.33105 7.58947,-6.57753 -4.88678,-1.52358 -4.96267,-10.24857 -9.44467,-7.58947 -10.71176,1.09783 -24.52657,3.48111 -35.78774,4.22093 -5.46461,0.35901 -10.58577,1.2336 -13.96539,-0.34188 -4.96982,-2.57075 -14.00118,-4.26926 -21.37973,-4.14252 -2.82465,0.0485 -5.08765,-1.40475 -7.09262,-1.88653 -3.28508,-0.7894 -5.59332,-0.67545 -6.43919,0.2948 z"
     id="path3038"
     inkscape:connector-curvature="0"
     sodipodi:nodetypes="cscccscsscscscscscsscccscssc" />
  <path
     style="fill:#fcdd09;fill-opacity:1;stroke:#fcdd09;stroke-width:1px;stroke-linecap:butt;stroke-linejoin:miter;stroke-opacity:1"
     d="m 702.14588,325.7545 c 0.10141,3.48524 1.08693,8.7974 1.78342,13.01419 0.66018,3.99692 0.9638,7.00971 3.44487,6.54976 l 7.25215,0.33731 c 3.29693,1.08121 2.54852,-7.68188 1.72328,-14.6773 -0.37823,-3.20616 -0.37292,-6.17422 -0.71135,-7.41647 0.0521,-4.16582 -15.79364,-5.95412 -13.49237,2.19251 z"
     id="path3040"
     inkscape:connector-curvature="0"
     sodipodi:nodetypes="csccscc" />
  <path
     style="fill:#fcdd09;fill-opacity:1;stroke:#fcdd09;stroke-width:1px;stroke-linecap:butt;stroke-linejoin:miter;stroke-opacity:1"
     d="m 679.37748,390.68657 c -9.10346,2.66313 -7.49581,23.70876 -4.04772,23.94898 3.04015,-6.10324 4.09247,-12.72062 9.61333,-15.51624 2.05854,-1.55888 0.4004,-10.48517 -5.56561,-8.43274 z"
     id="path3042"
     inkscape:connector-curvature="0"
     sodipodi:nodetypes="cccc" />
  <path
     style="fill:#fcdd09;fill-opacity:1;stroke:#fcdd09;stroke-width:1px;stroke-linecap:butt;stroke-linejoin:miter;stroke-opacity:1"
     d="m 742.96032,405.02222 c -4.075,0.22518 -6.30159,3.59099 -6.91484,8.09544 -1.70387,9.20083 -1.16542,10.13302 0.3373,12.31179 3.11955,1.29076 8.13996,-6.0059 11.29987,-13.15507 0.68491,-2.04631 3.15372,-7.71323 -4.72233,-7.25216 z"
     id="path3044"
     inkscape:connector-curvature="0"
     sodipodi:nodetypes="ccccc" />
  <path
     style="fill:#fcdd09;fill-opacity:1;stroke:#fcdd09;stroke-width:1px;stroke-linecap:butt;stroke-linejoin:miter;stroke-opacity:1"
     d="m 681.40134,344.64383 c -8.99914,1.31796 -12.3622,7.28462 -13.66103,15.34758 0.0879,2.77937 2.85604,-0.33621 8.14717,-3.57843 2.05079,-1.25666 5.3255,-0.10324 6.52579,-0.97525 3.12715,-4.66396 2.84074,-10.10684 -1.01193,-10.7939 z"
     id="path3046"
     inkscape:connector-curvature="0"
     sodipodi:nodetypes="ccscc" />
  <path
     style="fill:#fcdd09;fill-opacity:1;stroke:#fcdd09;stroke-width:1px;stroke-linecap:butt;stroke-linejoin:miter;stroke-opacity:1"
     d="m 693.37583,302.81746 c 2.82159,3.59797 6.07411,6.184 6.40888,9.78197 1.25433,3.64507 7.03863,4.00777 9.46161,2.02386 -0.65807,-6.67237 -4.43012,-18.71122 -11.82278,-16.86548 -1.56605,1.09659 -5.34016,2.68745 -4.04771,5.05965 z"
     id="path3048"
     inkscape:connector-curvature="0"
     sodipodi:nodetypes="ccccc" />
  <path
     style="fill:#fcdd09;fill-opacity:1;stroke:#fcdd09;stroke-width:1px;stroke-linecap:butt;stroke-linejoin:miter;stroke-opacity:1"
     d="m 798.11041,565.7502 c 1.07474,4.15948 0.78082,8.04523 -0.39067,11.75546 -1.11396,3.17883 -6.42253,7.51834 -4.50032,10.33831 9.47805,-0.34575 16.60762,-6.86042 16.69682,-20.06992 -4.21801,-2.65372 -8.03004,-2.46564 -11.80583,-2.02385 z"
     id="path3050"
     inkscape:connector-curvature="0"
     sodipodi:nodetypes="ccccc" />
  <path
     style="fill:#fcdd09;fill-opacity:1;stroke:#fcdd09;stroke-width:1px;stroke-linecap:butt;stroke-linejoin:miter;stroke-opacity:1"
     d="m 719.34866,545.84893 c -4.31015,-2.90072 -13.39061,2.11051 -19.3953,3.71041 1.42473,-5.8881 4.15637,-14.24988 14.167,-15.34758 7.04368,-0.25054 8.20303,8.60391 5.2283,11.63717 z"
     id="path3052"
     inkscape:connector-curvature="0"
     sodipodi:nodetypes="cccc" />
  <path
     style="fill:#fcdd09;fill-opacity:1;stroke:#fcdd09;stroke-width:1px;stroke-linecap:butt;stroke-linejoin:miter;stroke-opacity:1"
     d="m 750.88709,584.80818 c -5.42261,2.67118 -7.50132,6.17591 -7.58946,10.62525 -2.95076,0.19266 -3.59202,2.3099 -3.87906,4.72233 0.67625,4.02464 -1.6481,-0.70218 -2.36116,-2.86713 -3.647,-0.68618 -3.91332,-5.02997 -4.04772,-7.42081 0.68804,-4.09177 2.72165,-7.85723 5.05964,-8.9387 5.45248,-2.92081 12.65775,1.39254 12.81776,3.87906 z"
     id="path3054"
     inkscape:connector-curvature="0"
     sodipodi:nodetypes="ccccccc" />
  <path
     style="fill:#fcdd09;fill-opacity:1;stroke:#fcdd09;stroke-width:1px;stroke-linecap:butt;stroke-linejoin:miter;stroke-opacity:1"
     d="m 736.10334,497.44503 c 2.35469,1.64877 2.91529,2.97349 5.06623,4.20859 1.76723,1.01477 3.24544,2.48482 4.95076,3.54601 2.00381,1.94132 4.34968,1.63672 6.60827,1.53973 2.20504,-0.0947 4.6642,1.05993 5.29139,-1.21936 -0.0535,-3.24825 -1.67872,-5.94352 -4.36322,-7.94421 -2.0459,-1.52477 -4.35355,-2.7168 -9.12916,-3.02683 -4.78343,0.24277 -6.88344,0.24744 -8.42427,2.89607 z"
     id="path3056"
     inkscape:connector-curvature="0"
     sodipodi:nodetypes="cscscscc" />
  <path
     style="fill:#da121a;fill-opacity:1;stroke:#da121a;stroke-width:1px;stroke-linecap:butt;stroke-linejoin:miter;stroke-opacity:1"
     d="m 752.40499,514.3105 c -4.38503,-1.5788 -9.78198,-7.24694 -14.67297,-4.04771 -4.89972,5.3317 -1.77983,8.15925 4.21637,11.29986 2.14073,0.84801 5.3741,1.92303 7.6973,3.67704 3.16595,2.39027 5.36442,5.46326 7.48163,5.59897 l 8.77004,-0.16865 c 3.05991,0.58671 0.21453,-3.67864 2.1539,-6.75509 3.84261,-6.09558 4.28997,-14.04671 -1.8166,-15.67599 -6.27933,-2.07578 -8.84235,6.35788 -13.82967,6.07157 z"
     id="path3058"
     inkscape:connector-curvature="0"
     sodipodi:nodetypes="cccsccscc" />
  <path
     style="fill:#da121a;fill-opacity:1;stroke:#da121a;stroke-width:1px;stroke-linecap:butt;stroke-linejoin:miter;stroke-opacity:1"
     d="m 902.47163,442.97903 c -10.39009,-4.17246 -20.56105,-7.38803 -30.00372,-10.23358 -18.13641,-5.46542 -34.15587,-8.9961 -50.58006,-8.621 -9.3446,0.41747 -17.31565,1.30664 -26.04456,4.09571 -8.76149,2.79948 -19.90067,12.5872 -23.0463,11.89669 -5.3235,0.65586 -5.58736,-1.63702 -15.97049,-0.78537 -5.29858,0.13086 -8.09041,4.26547 -13.69905,5.44489 -7.81562,0.6485 -14.96482,-1.61042 -16.63313,3.95594 0.73877,5.5609 12.67692,14.17661 22.46122,15.98043 8.22232,2.02267 18.71883,1.01306 28.14463,1.43108 -1.27224,12.86362 5.20588,25.65861 12.83361,36.6374 7.49789,10.7919 16.14644,19.8232 15.0725,26.09174 0.0401,2.04138 -8.39094,0.77549 -11.72818,4.77938 -1.26302,1.51532 -2.84616,2.86998 -6.01361,2.71334 -4.49478,-0.24117 -9.80168,-0.61 -14.40272,-0.0558 -5.03763,0.60675 -9.26261,2.15236 -11.46259,2.11564 -3.63142,0.64077 -5.03965,-4.13845 -10.15027,-2.7055 -2.43171,1.3971 -4.86342,0.9823 -7.29513,0.1517 -1.69085,-0.49093 -3.31032,-1.54624 -4.85267,-2.05718 -4.94559,-1.63832 -9.09831,-2.37572 -12.26948,-0.0316 -2.95117,2.95677 -1.10295,5.22791 -1.25044,7.78415 0.67123,4.15167 -7.86227,7.88789 0.71554,11.98357 4.38117,1.48159 7.11323,-2.54648 11.92569,-2.0189 4.68752,-0.53825 11.46686,0.25534 10.67525,7.4518 0.15777,8.18008 -14.4388,12.32849 -12.58336,15.92256 0.89184,3.15211 8.8483,-1.5099 13.52543,2.03584 3.32953,1.28082 6.91115,9.32965 13.67713,8.90686 5.7863,-0.87845 -1.19209,-16.7141 2.61166,-17.38258 1.55865,-1.4191 10.6473,1.04087 13.55437,-1.05285 l 0.0818,-7.34308 c -0.44871,-4.58078 2.36593,-4.49963 4.96787,-4.72233 2.38069,-0.62618 0.74705,-6.07842 6.43987,-4.77027 1.98933,1.68258 -11.91281,9.88283 -0.60476,13.47953 3.54739,-0.34874 5.14512,-3.94742 9.49964,-3.9799 5.38309,-0.70198 8.08161,2.46122 11.85582,2.18754 6.39922,-2.64398 4.06184,-9.65626 0.71555,-17.17299 8.80604,2.59568 6.60993,13.49328 11.70412,12.20512 5.51466,-1.66849 9.38798,-3.82914 12.66018,-6.78139 2.01221,-1.81546 4.11175,-3.72052 5.29325,-6.6163 2.10483,-4.31777 -2.71418,-11.34492 -6.50512,-19.08087 -3.32683,-6.78887 -6.90101,-14.12361 -5.82277,-20.65214 0.75696,-7.49266 5.3118,-10.79369 9.09848,-14.004 6.22637,-5.27866 13.77232,-6.66247 21.08799,-8.20584 12.93837,-2.72958 26.06448,-2.72836 36.81896,-2.5956 0.40618,-12.12728 3.32853,-24.25455 5.49781,-36.38183 z"
     id="path3060"
     inkscape:connector-curvature="0"
     sodipodi:nodetypes="cscsccccccscscscccsccccccccccccccccccscscssccc" />
  <path
     style="fill:#fcdd09;fill-opacity:1;stroke:#fcdd09;stroke-width:1px;stroke-linecap:butt;stroke-linejoin:miter;stroke-opacity:1"
     d="m 891.5868,583.25409 c 6.99151,0.95895 10.68945,4.25742 14.54934,8.34799 2.33882,-2.75951 4.89198,-5.62618 4.77028,-7.15542 -7.51768,-8.78463 -13.79733,-6.35201 -19.31962,-1.19257 z"
     id="path3832"
     inkscape:connector-curvature="0"
     sodipodi:nodetypes="cccc" />
  <path
     style="fill:#fcdd09;fill-opacity:1;stroke:#fcdd09;stroke-width:1px;stroke-linecap:butt;stroke-linejoin:miter;stroke-opacity:1"
     d="m 888.48612,625.70955 c -10.66582,0.33697 -13.06028,12.16158 -12.64123,16.69597 2.23717,-1.17931 5.12577,-3.24383 9.47809,-4.24835 2.87215,-0.6629 6.53248,-1.48557 7.21788,-2.19152 2.83981,-4.65143 -1.15117,-9.80088 -4.05474,-10.2561 z"
     id="path3834"
     inkscape:connector-curvature="0"
     sodipodi:nodetypes="ccscc" />
  <path
     style="fill:#fcdd09;fill-opacity:1;stroke:#fcdd09;stroke-width:1px;stroke-linecap:butt;stroke-linejoin:miter;stroke-opacity:1"
     d="m 946.20647,646.69877 c -7.1229,0.33933 -12.59264,5.14794 -11.21016,8.82502 1.61862,10.05226 10.89214,8.42984 16.45746,6.91689 -4.74795,-4.55213 -6.84765,-9.92012 -5.2473,-15.74191 z"
     id="path3836"
     inkscape:connector-curvature="0"
     sodipodi:nodetypes="cccc" />
  <path
     style="fill:#fcdd09;fill-opacity:1;stroke:#fcdd09;stroke-width:1px;stroke-linecap:butt;stroke-linejoin:miter;stroke-opacity:1"
     d="m 966.24163,621.89333 c 3.75121,1.18565 4.10524,3.81096 5.65948,6.82742 1.64127,3.18538 3.71316,6.80695 5.78918,9.63003 5.23458,-6.75789 5.98018,-16.91489 0.95407,-19.31961 -4.53177,-0.78203 -12.17768,0.4002 -12.40273,2.86216 z"
     id="path3838"
     inkscape:connector-curvature="0"
     sodipodi:nodetypes="csccc" />
  <path
     style="fill:#da121a;fill-opacity:1;stroke:#da121a;stroke-width:1px;stroke-linecap:butt;stroke-linejoin:miter;stroke-opacity:1"
     d="m 918.30035,587.30882 c -2.84109,2.92749 -3.62817,5.04058 -7.81133,7.84239 -4.93037,3.30228 -9.18429,5.04341 -10.0772,7.66101 -1.24167,2.87545 1.73488,7.9634 8.68476,5.26157 1.50519,-0.58515 2.74211,-1.99035 4.672,-3.35345 1.51315,-0.80718 3.38184,-1.77399 4.78121,-3.32937 1.1718,-1.30243 1.94325,-3.08884 2.58712,-4.85395 2.5347,-6.94861 1.27448,-14.43103 -2.83656,-9.2282 z"
     id="path3840"
     inkscape:connector-curvature="0"
     sodipodi:nodetypes="cscscssc" />
  <path
     style="fill:#da121a;fill-opacity:1;stroke:#da121a;stroke-width:1px;stroke-linecap:butt;stroke-linejoin:miter;stroke-opacity:1"
     d="m 891.97,116.62227 c -6.6692,2.56622 -2.17971,8.74951 3.25735,6.88796 5.03104,-1.61325 10.46431,-1.61756 16.39461,0.36625 7.91885,3.37255 11.77054,6.33816 9.97666,10.26808 -1.21606,2.94038 -5.05087,-5.29131 -11.68015,-2.24046 -3.76609,1.82495 -6.19434,5.31929 -8.79112,7.9528 -3.56127,2.49484 -4.01928,-3.81414 -6.38199,-3.39707 -3.40735,0.66197 -3.63636,3.42556 -1.96599,6.25924 12.65289,20.66899 25.18659,45.66026 19.44735,57.95886 -1.67687,6.62619 -14.10125,15.57397 -30.12311,26.58678 -14.03574,9.64763 -32.00115,19.75044 -44.92239,33.17172 -3.6675,3.80943 -8.02825,8.01281 -11.21093,12.67419 -13.54728,19.84145 -20.18544,45.094 -7.35177,54.34587 4.14912,-10.91238 7.50328,-23.2844 13.54393,-33.38572 6.61116,-11.05534 16.34015,-19.39082 31.41241,-20.1162 -11.66591,6.4311 -20.71352,14.08412 -26.97773,23.31996 -7.09046,10.45406 -10.20374,22.6251 -11.76527,34.89437 -0.39429,-0.0215 -8.03983,2.70155 -12.05946,3.89752 -3.19686,0.95117 -6.84644,1.72791 -9.81011,2.63981 -8.98819,2.76561 -19.24365,-3.68255 -22.76144,-1.59841 -7.59252,5.19766 6.97771,17.53822 15.53233,22.6828 1.69011,1.95486 -3.78323,5.54085 -9.06542,9.31821 -5.88167,4.20606 -10.85912,12.46261 -6.77529,15.87041 6.4707,-5.26343 13.66772,-6.974 20.58205,-7.80109 14.90357,-0.098 31.03417,1.12345 46.35637,1.82087 12.63582,0.57514 24.72186,1.11764 35.11656,-2.56535 0.51469,4.83772 -13.80609,9.45261 -10.46567,12.14023 6.42807,17.21605 34.20808,46.55954 35.93374,40.54239 4.41007,-5.64692 6.60964,-16.39923 12.31591,-15.20701 -9.92117,24.43153 -13.54825,49.39596 -16.23225,77.44608 -0.95119,9.9408 1.87506,21.77438 2.56363,33.06332 0.55863,9.15867 -0.57801,17.9012 -3.9814,25.44347 -2.78688,7.91387 4.02239,8.96795 11.82689,8.85395 6.85472,-0.27626 14.97472,-6.19988 19.7268,-8.03961 17.78531,16.52017 20.61129,27.17546 15.70346,36.04967 -2.9957,5.41675 -9.29612,11.3339 -15.60196,14.12596 -9.18076,4.06501 -18.64014,8.0819 -22.83018,12.2162 -0.39376,0.91169 -5.94006,1.03129 -10.75635,1.78307 -5.52531,0.86244 -10.08985,2.45026 -4.81194,5.22064 4.90969,3.78492 6.73826,11.19943 5.87369,17.99492 -0.8446,6.63851 -4.23706,11.35245 2.23081,11.57583 1.91854,0.2315 4.37515,-5.35947 8.0321,-9.99948 1.37907,-1.7498 3.4584,-2.9563 5.15947,-4.23713 1.9923,-1.50011 3.65382,-2.97681 5.88953,-3.66391 6.64854,0.6927 2.9319,15.65955 6.81812,17.20193 2.49245,0.21323 2.61551,-7.60138 10.69715,-7.92883 l 12.13031,-0.3493 c 2.50915,-0.80212 -1.90754,-7.79724 -2.85325,-15.26632 -0.85207,-6.72944 2.70676,-16.51034 6.30323,-17.14262 8.88714,-1.25324 -6.34633,10.88014 3.46692,13.87472 3.32403,-1.28357 3.47588,-2.71087 6.36505,-6.60356 3.37572,-3.81109 8.95295,-1.01767 13.52543,-1.23846 6.27729,2.08383 -0.33238,-5.20736 -0.82632,-9.26813 -0.70097,-3.20804 0.14518,-4.68812 1.83064,-3.42944 3.37242,2.51847 7.06927,12.11718 14.52801,7.51516 15.77398,-12.90033 4.89117,-30.7477 -6.45728,-48.75907 -10.84701,-17.75935 -15.05993,-33.68242 -8.69185,-60.69685 1.09869,-4.72554 -16.74779,-23.17871 -12.64124,-28.02187 1.59095,-2.69161 5.87919,8.99643 16.83243,20.6618 4.06294,4.3271 11.23574,8.13922 16.83932,12.05115 3.9448,2.75383 7.0178,5.72729 11.4777,8.22485 11.8862,6.65631 25.3857,12.36064 38.9323,15.7285 13.9103,3.45831 27.8519,4.48969 38.7239,4.40523 27.4217,0.83488 51.051,-13.89921 66.6516,-35.16899 6.9371,-9.45811 10.2882,-21.40143 15.9532,-30.81692 8.249,-13.71032 18.9476,-23.57238 32.3878,-25.13836 -0.4649,-2.15891 -3.6527,-6.72527 -7.0162,-7.30161 -4.6961,-0.80471 -9.8949,2.6461 -9.9182,0.14615 2.506,-2.56644 3.1143,-5.67879 4.0284,-8.83714 0.9572,-3.30728 2.5383,-6.3277 4.4251,-9.16186 1.7231,-2.5884 3.886,-4.65301 5.9108,-6.92812 4.4119,-4.95725 8.4629,-9.98711 10.6769,-14.35755 3.2081,-6.33266 2.8229,-12.1355 0.6721,-17.32022 -0.7337,-1.76846 -2.1198,-3.465 -3.0339,-5.08613 -1.055,-1.87113 -2.2418,-2.58349 -4.7211,-3.71964 -4.5628,-0.8668 -10.0775,-1.10773 -12.5304,3.08869 7.5543,4.3627 6.991,11.54958 3.059,17.49161 -3.0576,4.62057 -12.1239,8.98342 -18.335,14.17475 -6.0201,5.03167 -10.9827,11.72051 -13.0493,16.82181 -4.1921,-6.36098 -8.7215,-10.17422 -12.5763,-13.10627 0.8654,8.12408 1.5152,16.37555 -1.3941,24.6758 -2.2745,6.48932 -7.5113,13.07402 -11.326,19.21802 -6.4815,10.98047 -5.6489,22.76994 -7.4079,33.54737 -1.6184,9.03418 -4.4981,17.03019 -11.4447,23.20577 -7.4347,6.60949 -19.3934,11.08106 -32.8909,11.91958 -16.7152,0.32537 -36.1545,-3.18443 -53.4539,-10.76317 -14.9666,-6.55678 -34.47,-20.39826 -46.73201,-33.19643 -9.1296,-9.52879 -12.81693,-19.15568 -15.25482,-21.15468 -2.86087,-2.30646 -6.83859,0.83289 -11.63045,2.51171 -2.39969,0.84072 -5.00354,0.97892 -7.77355,1.23537 -2.97236,0.27519 -5.3826,-1.91661 -8.2315,-2.15818 -5.14718,-0.43645 -8.37679,-2.16399 -10.87601,-7.59266 -1.61369,-5.17963 3.82648,-4.44581 5.39704,-9.00039 1.13748,-6.39678 0.22783,-13.92915 0.50794,-16.71819 -0.68952,-2.55471 -3.81995,-6.74728 -6.61773,-9.53266 -2.86058,-2.84791 -7.62643,-4.22674 -10.73185,-6.64224 -5.62197,-4.37296 -11.89625,-8.50849 -16.47718,-13.03644 -3.83745,-3.79305 -6.13448,-7.96208 -9.2614,-11.80614 -3.09004,-3.79872 -7.42931,-7.88568 -9.62091,-12.28466 -2.10788,-4.23097 -2.12791,-8.77585 -2.13713,-12.38094 8.2668,14.51196 19.5842,27.57264 32.31818,38.14829 5.5264,4.58971 13.56353,6.05678 18.5014,11.5624 2.16783,2.41708 4.42267,4.67739 5.901,7.08234 3.356,6.07133 6.18206,11.05827 6.68669,16.35774 0.49201,5.167 -1.60174,11.47437 -4.8606,17.68704 17.57705,8.26012 34.41736,-3.3658 33.67634,-30.94892 -0.31295,-4.72936 -3.86891,-8.49173 -9.38573,-17.84112 -5.89724,-9.99409 -14.48249,-22.60059 -24.27884,-33.31889 -5.53789,-6.05907 -13.93178,-13.5386 -21.49496,-17.24051 7.91145,0.63591 20.05636,6.77135 30.80511,17.86299 4.34394,4.48251 9.12302,9.73994 12.63254,15.26356 5.4222,8.53397 9.21752,17.70335 14.58691,25.63207 11.0696,16.34595 21.92102,28.10981 22.41752,28.34567 -0.3358,-0.15395 22.9524,24.24218 48.9468,34.6507 11.8196,4.73274 24.5554,6.59015 34.6118,5.12103 9.0712,-1.32519 18.2921,-5.65139 18.6939,-12.15087 1.1908,-2.05269 -10.3145,-5.78787 -15.6927,-9.47095 -9.4281,-6.45652 -19.0355,-14.6082 -27.6988,-21.39438 -9.6686,-7.57365 -19.6561,-15.20563 -28.5071,-23.22729 -5.4646,-4.95261 -9.8699,-9.75654 -15.3735,-14.66831 -8.3728,-7.47244 -18.87312,-15.09318 -27.33643,-22.52005 -4.77373,-4.18913 -13.87465,-15.17008 -18.45121,-19.51014 18.95501,13.5618 31.89164,27.48538 46.82234,34.04648 17.4947,7.68787 31.1527,9.22446 40.7378,9.53538 12.0815,0.39189 22.8921,-3.80218 30.7904,-10.16465 8.2659,-6.65849 11.487,-13.46722 13.6853,-20.92974 -0.674,-4.73181 -10.9592,-2.70397 -22.7149,-2.8383 -6.3053,-0.072 -13.133,-0.93011 -20.5521,-1.30143 -11.9785,-0.59951 -26.8761,-1.37946 -39.4682,-3.1095 -6.4003,-0.87934 -17.2266,-3.89164 -22.14392,-4.44291 9.03972,-1.58046 19.81182,-2.30804 31.14782,-4.00624 7.3716,-1.10431 14.9817,-2.91107 22.509,-4.63151 6.9304,-1.58402 13.7018,-4.07846 19.9991,-5.7616 24.5144,-6.55221 49.6367,-17.89952 66.3599,-28.583 17.9887,-11.49193 36.3014,-33.94217 25.0097,-42.78383 -3.5997,-1.66439 -9.1785,2.96455 -18.5045,8.37015 -7.0829,4.10544 -15.64,8.0556 -22.2892,10.00243 -5.9719,1.74852 -11.9028,4.79849 -18.1132,7.46913 -15.4253,6.63327 -31.7033,14.41356 -48.2395,19.61001 -5.3186,1.67134 -10.7199,3.73597 -16.1362,5.40521 -10.3257,3.18223 -20.7061,6.49073 -30.6726,8.46081 -8.0578,1.59277 -18.30096,3.76965 -25.86027,2.51521 3.30693,-1.21196 4.46327,-2.69264 9.37037,-4.19981 10.1299,-3.11129 23.9811,-6.21088 38.7071,-11.8217 28.7768,-10.96437 62.9503,-28.31931 94.3101,-48.73767 21.8005,-14.19426 43.7229,-28.73592 55.3477,-48.36567 3.4575,-5.8383 4.9894,-15.89007 5.5762,-23.13689 0.3725,-4.60139 0.7666,-8.07192 -0.2614,-8.61493 -1.7884,-1.50855 -4.5378,-1.55088 -7.2458,0.76742 -2.7151,2.32442 -5.393,7.0166 -10.4098,10.91423 -2.4187,1.87908 -3.866,4.0523 -6.6364,6.13281 -15.0845,11.32825 -35.5729,24.73969 -48.319,32.57704 -12.2102,7.50778 -25.3934,14.48984 -37.8402,21.32395 -21.7704,11.95337 -45.8383,26.34884 -69.7736,37.70325 -16.29438,7.72971 -32.52729,13.59758 -47.93206,18.09235 6.38591,-5.03147 31.49017,-16.98296 42.93346,-22.84937 59.2571,-30.37811 111.7672,-76.59058 135.9303,-113.07124 8.0069,-12.08851 11.8612,-22.77111 12.8926,-31.79219 0.9304,-8.13786 -1.1227,-23.92513 -8.4451,-18.85089 -7.5342,6.01089 -13.2265,12.60372 -19.5603,19.47549 -15.5951,16.91955 -31.5248,33.98886 -48.6564,50.64699 -4.0313,3.91986 -8.4287,7.59279 -12.5839,11.52137 -6.0073,5.67976 -11.876,11.52622 -18.4806,16.3448 -16.0918,11.74024 -34.3037,23.31209 -53.58767,32.47316 -19.46393,9.24656 -40.01062,16.06877 -58.51012,25.00241 -10.5456,5.0926 -19.35913,11.85903 -26.05168,20.33591 -3.94911,5.00199 -6.60255,11.09799 -9.36825,16.73838 -0.95885,-15.65157 12.44543,-30.2249 33.57258,-42.61212 11.9713,-5.27529 24.13849,-11.89422 36.92286,-17.90854 18.30127,-8.60969 37.36828,-16.97844 54.44028,-27.38382 12.0259,-7.32977 22.1042,-16.40495 31.9981,-24.92644 12.1675,-10.47973 23.7902,-20.21938 30.9279,-32.49966 1.4618,-2.51487 3.8611,-7.1604 5.1263,-10.42058 4.0173,-10.35204 7.6464,-23.40357 7.6714,-35.25364 0.013,-6.07829 -2.604,-13.18484 -4.8565,-18.53641 -1.788,-4.24781 -2.972,-7.45231 -5.0908,-7.71558 -3.4081,-0.42349 -4.233,6.8934 -5.286,10.45128 -0.4297,2.16231 -2.2571,4.78857 -3.0486,6.8723 -2.6512,6.9791 -5.2399,12.7046 -8.4211,19.06724 -2.1245,4.24921 -4.7397,7.97277 -7.1788,12.16139 -6.0702,10.42407 -14.0375,20.80217 -21.9273,30.64439 -3.931,4.90382 -7.2996,9.35626 -11.4804,14.2531 -3.4009,3.98345 -9.2562,6.80109 -12.424,9.52542 -5.5379,4.76267 -9.9931,9.88587 -15.552,14.18885 -13.35846,10.3404 -28.25896,18.35997 -44.93417,22.72755 -4.25709,1.43381 -2.76321,-0.61975 -1.72809,-4.85616 1.64155,-6.71831 2.83415,-24.23138 8.27874,-26.6037 3.31747,-0.93204 6.91792,-1.21466 10.20281,-2.23904 2.57302,-0.80239 4.32668,-2.58784 6.54681,-4.00303 1.68224,-1.07234 3.91959,-1.64481 5.3352,-3.06488 2.95214,-2.96144 5.43689,-6.44091 5.22853,-12.02658 -2.53268,-4.45129 -14.57993,10.91521 -23.02507,6.23731 -3.18018,-6.36037 -12.25989,-12.49473 -8.02266,-16.38263 3.81566,-0.50309 6.78563,-3.16085 9.39478,-4.19787 3.85723,-1.53306 5.97112,-1.54442 8.62651,-3.86194 4.37895,-3.82177 9.87956,-20.33576 0.38726,-12.09812 -2.7098,1.4108 -5.70851,3.52705 -8.11229,5.21938 -3.47548,2.44683 -6.07513,4.00748 -7.84126,1.26843 -1.52568,-3.92214 -1.66554,-7.82991 -3.08056,-11.6882 -2.42509,-6.61238 -6.30857,-13.07939 -10.79853,-19.22419 -1.11602,-1.52735 -3.36269,-2.68086 -3.3927,-5.13915 -1.58485,-5.95805 15.35794,-13.89185 19.1944,-18.54875 1.46099,-2.87659 4.30816,-3.6739 7.55511,-3.87155 7.54644,-1.88445 -7.27978,-7.071834 -14.96962,-6.930714 -4.68355,0.086 -10.03567,1.103984 -16.17193,3.969754 -11.02249,5.58861 -12.66621,13.37756 -19.9124,15.92256 -1.9394,0.21632 -6.0455,-2.06501 -11.42276,-2.86625 -5.92425,-0.88274 -10.75342,-0.59472 -15.98441,0.55097 z"
     id="path3842"
     inkscape:connector-curvature="0"
     sodipodi:nodetypes="cccccccccssscscscssccsccsccccsscccsscscscssccccscccccsccccsssscsscscssssssccssccsccscsscssscccssssscsscsccsscssscsscssssscssscssscsssscsssssscssssscsssssscssscsssssssccsssssssscssssssscscssscccsscscsscccsccsc" />
  <path
     style="fill:#da121a;fill-opacity:1;stroke:#da121a;stroke-width:1px;stroke-linecap:butt;stroke-linejoin:miter;stroke-opacity:1"
     d="m 906.37466,107.77679 c -1.78003,3.38013 5.48183,2.59803 10.2534,3.98419 2.64698,0.50425 2.03585,-0.71385 2.88555,-1.66247 0.35074,-0.39157 0.70655,-0.77787 1.09736,-1.06911 1.10438,-0.82302 2.6781,-0.4695 3.53297,-1.0141 3.69369,-4.05473 7.24426,-10.971634 5.84359,-12.164208 -7.51216,-2.114035 -15.11528,2.490674 -23.61287,11.925698 z"
     id="path3844"
     inkscape:connector-curvature="0"
     sodipodi:nodetypes="ccssccc" />
  <path
     style="fill:#c7c2cd;fill-opacity:1;stroke:#c7c2cd;stroke-width:1px;stroke-linecap:butt;stroke-linejoin:miter;stroke-opacity:0"
     d="m 905.13269,124.58478 c -1.37301,0.14372 -1.98393,0.8949 -1.99843,2.0346 -0.0194,0.91626 0.26168,1.94213 2.11893,1.99244 1.35077,-0.024 2.16536,-0.8107 2.02613,-2.35144 -0.15734,-1.28195 -1.12094,-1.66428 -2.14663,-1.6756 z"
     id="path3846"
     inkscape:connector-curvature="0"
     sodipodi:nodetypes="ccccc" />
</svg>
